<svg id="Layer_1" data-name="Layer 1" xmlns="http://www.w3.org/2000/svg" viewBox="0 0 911.38626 246.22196"><path d="M-873.90574,640.96405c-8.13877,12.0575-19.72373,18.23193-33.9543,19.89008a13.278,13.278,0,0,0-3.20661-.82569q-31.48635-.071-62.97273.02429c-1.34189.00519-2.68077.80085-4.02106,1.22876q-15.54768,12.83085-31.09977,25.65644c-.5042.41552-1.07167.75427-1.60968,1.12884q-.90226.62769-1.80455,1.25531l.06189-.056c-1.63726-.39239-2.31737.29291-2.16129,1.91962l.05139-.10114-1.12186,1.05011.06986-.05053c-1.77762-.06446-3.687-.34723-3.82309,2.30774l-.179-.1944q-4.71429-.90262-9.42862-1.80518l.0441-.08148q-.52652-.51516-1.053-1.03039l-.041.00354c-.2136-4.41016-.5046-8.81824-.61828-13.231-.10638-4.12952.07329-8.26734-.06747-12.39484-.07015-2.05682.03922-4.56415-3.25329-4.35412l.18394-.04047c-1.28795-.42493-2.573-1.20685-3.86431-1.21735-8.87289-.07183-17.65874-.59954-26.14565-3.54022-.51766-.17932-1.31061.43585-1.97547.6814l-1.96443-.96625q-.605-.479-1.21-.95795l-.02408.14447-1.9411-1.09625-.01161.04114c-.21629-2.54877-2.08077-2.339-3.84489-2.2973l.04225.03741q-1.11832-.91095-2.23665-1.82178l.09584.0177-1.115-1.00122.0303.0846-1.83595-1.33832-1.91326-1.95081q-1.143-1.43957-2.28607-2.87908l.02628.08105c.401-1.77283-.0117-2.9538-2.1138-2.90576l-.08581-.08008c.79057-1.8949.09035-2.85266-1.88962-3.006l.1197-.02026-.88938-1.21583.05833.069c.91739-4.756-2.88858-7.991-3.90444-12.12446-.333-7.77685-.90423-15.55212-.9533-23.33081q-.2-31.71349-.00851-63.42907c.12371-16.93463.57735-33.86689.88456-50.80017a46.55687,46.55687,0,0,1,1.7378-7.0055c4.15857-10.029,10.77014-17.99225,20.36126-23.31433l.8499-.342-.05553.09412,6.987-3.19318.032.11551q1.48963-.573,2.97928-1.146l.03148.16889c5.89656-.51144,11.78833-1.09149,17.69185-1.50311a71.28188,71.28188,0,0,1,7.9188-.003c3.12763.13073,6.25391.67385,9.37074.60208,6.20414-.14282,12.40087-.8176,18.60166-.83164,5.44125-.0123,10.88063.7663,16.3266.86q13.57623.23346,27.15928.011c10.33846-.17228,20.6722-.79035,31.00934-.82639,7.76876-.02707,15.53813.61429,23.31084.82541a24.04052,24.04052,0,0,0,4.70627-.79392,48.32222,48.32222,0,0,1,37.87895,40.90967,34.15982,34.15982,0,0,0-.797,5.21854q-.0687,59.18367-.07147,118.36734a46.736,46.736,0,0,1-.8352,7.34833c-.604,3.72631-1.34629,7.43011-2.02988,11.14349l.099-.08734c-2.30411.6142-2.2695,2.39825-2.1207,4.23944l-.93933,1.72864q-.52459.58456-1.04926,1.16906l.16925-.05554Zm-180.76731-148.723.1809-.06616-1.29676.81848.06519,1.11719.07285-.0745-1.04374,2.39871a.38242.38242,0,0,1-.12291.56977c-.66156,1.38217-1.89322,2.76162-1.89991,4.14694-.11662,24.15414-.07654,48.309-.09467,72.46368-.00143,1.91712.06047,3.71466,2.24978,4.494q2.42673,2.71692,4.85345,5.43378c2.132,2.91064,4.10282,3.255,8.87907,1.55127a1.20313,1.20313,0,0,1,.82764-.1554c2.21271.06024,2.20732-1.46393,2.20361-3.03528q-.08754-37.03788-.15989-74.0758l-.0953.067,1.18833-2.09866.8452-.86578,2.23521-1.00452c5.75291-.30811,11.5047-.85568,17.25893-.88226,23.05206-.10654,46.10485-.05023,69.15739-.05948a14.68817,14.68817,0,0,0,3.94969-.168c.66153-.18964,1.04708-1.34207,1.55716-2.06009.02109-5.979-1.36-11.09729-7.98006-12.99942-.43209-2.61112-2.52342-1.745-3.97164-1.70123-7.6146.23028-15.22316.84961-22.83648.89572-21.81038.13211-43.62205.047-65.4332.06567-2.43726.00208-5.06662-.45093-6.63166,2.2153l.13345-.10043-1.19789.94153.05461-.03873-1.9628,1.23056.12328-.14242ZM-896.63759,629.034c.61124-.981,1.7472-1.95771,1.755-2.94342q.17057-21.67063.00946-43.343c-.00592-.89917-.96979-1.79205-1.488-2.68781q-.698-.56826-1.39608-1.13641l.041.04864a1.8414,1.8414,0,0,0-.237-.89636c-1.89215-3.64416-5.22182-4.83056-8.98538-5.02679-3.62514-.18891-7.26331-.128-10.89574-.17688.01218-17.37912.06394-34.75842-.03091-52.137-.00852-1.56272-.96481-3.12024-1.48094-4.68018q-1.25334-1.94477-2.50669-3.8895c-1.10586-3.46518-4.03355-3.97094-7.01487-4.11428-3.24553-.15607-6.508-.13843-9.75646-.01789-7.018.26044-14.02867.7529-21.048.939q-23.1492.61363-46.3043.99765c-7.15662.12234-14.31708.0397-21.47566.01236-2.37952-.0091-4.44648.25348-4.23593,3.4086q-.2691.828-.53818,1.65612c-.52379,1.55979-1.4897,3.11594-1.50241,4.67984-.11581,14.26319-.06463,28.52775-.0643,42.79187s-.03386,28.52845.04154,42.79212c.00856,1.62225-.9775,3.79962,1.57368,4.649q2.207,2.20476,4.414,4.40948c1.00689,2.77039,3.3965,1.56006,5.13767,1.56751,21.54947.09216,43.09946.06176,64.64932.06292.05142,2.98822.098,5.9765.15531,8.9646.11523,6.00464,2.18,8.78028,8.10485,10.90961q22.41887.00649,44.83773.01294c4.22007-.53424,6.627-3.145,7.97743-6.9657Z" transform="translate(1094.82311 -448.99129)" style="fill:#1c89fe"/><path d="M-384.811,538.06763q.91956-.55848,1.83911-1.117.57725-.4101,1.15442-.82022l3.05127-1.04681a7.85,7.85,0,0,0,2.13233.75885c3.4895.17471,6.78668-1.07761,10.36841-1.1547a37.13085,37.13085,0,0,1,16.84234,3.42368,16.50056,16.50056,0,0,0,3.79248.768l-.05627-.05386c-.00794,1.72244.588,2.47147,2.29754,1.4252l.32581.27866c-1.28076,2.9274.91785,2.32583,2.44232,2.40805q.4422.44151.88428.88309c-.09265,1.57263-.25928,3.19485,2.0965,3.12478q.95791.92766,1.91577,1.85535c.95642,3.06442,1.99469,6.10629,2.84723,9.19934.92651,3.3616,2.19378,6.741,2.39233,10.16595.31921,5.50831-.08057,11.06165-.26147,16.59308a29.23845,29.23845,0,0,1-.64838,3.88721q-1.15273,6.74982-2.30139,13.50043l.04779-.047c-2.85791.13092-1.251,1.21552-.45435,2.12708l-.23376.38879q-1.47684.31255-2.95362.62506.73244.87543,1.46479,1.75086-3.99683,4.5011-7.99378,9.00213a18.86412,18.86412,0,0,0-3.873.18482c-1.70295.42694-2.41254,1.56659-1.31977,3.276a1.02715,1.02715,0,0,1-.65619.365c-.96643-.32269-2.20324-1.19983-2.85675-.881-5.57361,2.71911-11.50665,2.11071-17.3457,2.00238a24.31019,24.31019,0,0,1-7.27808-1.45484c-3.67218-1.25824-7.21649-2.88995-10.81488-4.36358l.04236.04254q.69094-3.60389-2.94708-3.12451l.02429.036a15.5611,15.5611,0,0,0-.66058-1.67066c-.03357-.06592-.54029.10907-.82776.17243q.30579.72682.61157,1.45355-.103,2.49819-.20605,4.9964c-.96918,2.02337-2.19416,3.23785-4.824,3.05609-4.30316-.29755-8.64453-.1731-12.96472-.04926-3.011.08637-4.22174-1.19214-4.11182-4.16192.12293-3.32141-.00464-6.65119.02863-9.97681.219-21.91541.55835-43.83023.63476-65.746.03693-10.60608-.42627-21.21353-.62341-31.82111-.02985-1.6073.15619-3.21863.247-4.91333h20.1037c.59253,2.17114,1.05572,3.86829,1.51886,5.56543q-.00028,2.02285-.00067,4.04569c-.28949.55645-.82764,1.11132-.83118,1.66955q-.08057,12.80466-.00079,25.6098c.00348.55976.53833,1.11625.826,1.67423q.47.97893.94,1.95785c2.60718-.15448,4.00555-1.50946,4.11566-4.144q.44916-.42155.89838-.84308Q-385.39085,538.50947-384.811,538.06763Zm-5.98523,26.92764a1.47126,1.47126,0,0,0-.17456-.37177c-.053-.06213-.18579-.05612-.28277-.08068l.44983.46066q.03525,1.5102.07055,3.02038-.2255,1.49259-.45105,2.98517c-.8313.37885-2.32092.66022-2.39355,1.15131-.86408,5.84033-2.27716,11.74194-.06152,17.54907.37121.973,1.81671,1.5362,2.76586,2.2887q1.046,1.97232,2.09186,3.9447c.26465,2.63641.30194,5.50745,4.36212,4.22668a3.69851,3.69851,0,0,0,.44611.39136c.26135.90009.23669,2.24164.83148,2.627a15.47,15.47,0,0,0,10.84571,2.39135c2.47894-.3872,5.702,2.05207,7.49212-1.57354a1.48845,1.48845,0,0,0,.17932.36987c.05359.06146.18549.05469.28223.07861l-.45184-.45837q-.02152-.55235-.04309-1.10468.965-.46325,1.93-.92657c1.53912.03479,3.18432.22095,3.04779-2.13562q.95352-.94107,1.90716-1.88208c3.55445.50036,3.23084-1.88648,3.08368-4.142q.44678-.93337.89362-1.8667l1.17328.06372a1.46856,1.46856,0,0,0,.17169.37152c.05237.06214.18457.05695.28088.082l-.44873-.45727c.91443-2.08136,1.82886-4.16272,2.84119-6.46686-.74963-.21783-1.35529-.39386-1.96094-.56989l.23969-3.96636c.62048-.61805,1.80407-1.26526,1.77368-1.84943-.27423-5.281-.27411-10.6864-3.52326-15.25781a9.59157,9.59157,0,0,0-2.58465-1.81287q-2.429-2.43819-4.85785-4.87637c-1.272-3.29935-3.09876-4.10471-6.97644-3.07566q-.97915-.11856-1.95837-.23718c-.28284-.54526-.55195-1.554-.85065-1.56283-2.51685-.07441-6.12818-.937-7.27112.34494-1.29236,1.44943-5.68805-.20881-4.1911,3.8262l-.26611.20056c-1.74744-.99121-2.3255-.17276-2.34272,1.51376l-1.7904,1.89087c-1.88935-.00262-2.65943.73606-1.72467,2.60394a.53188.53188,0,0,1-.83917-.27206l-.85981.23807.81885.05313q-.19364,1.13054-.38733,2.261Z" transform="translate(1094.82311 -448.99129)" style="fill:#11181b"/><path d="M-783.5923,583.92786l.81958.98889c-.03015,1.55658-.17025,3.19342,2.192,3.00464q1.4262,1.43885,2.85239,2.87768c-.09461,2.87061,1.71368,3.32172,4.0093,3.1532l-.04138-.02533c-.06717,2.31751,1.561,2.06494,3.05524,2.01532l-.04486-.03094c1.044,1.33233,1.88031,3.551,3.16595,3.85223,7.92478,1.85736,15.881,3.84094,24.14987,3.21765a13.69851,13.69851,0,0,0,3.41907-.44324c5.968-2.06665,11.96341-4.07867,17.824-6.423,4.22732-1.69092,5.29242-1.19678,5.37439,3.49072.0639,3.65485.01446,7.31171.01327,10.96771-.00091,2.82929-.35055,5.15906-4.02234,5.66468-2.52185.34735-4.87921,1.74933-7.38153,2.40893-4.29553,1.13233-8.84189,3.38416-12.934,2.78467-8.43551-1.236-16.94357,1.23218-25.22433-1.155-3.35764-.968-6.66861-2.0993-10.03238-3.04388-2.8273-.79389-5.70038-1.42481-8.55319-2.12787l.04718.053c-.78412-3.18482-3.007-4.22455-6.04245-4.0528l.04739.04444c.2384-2.22547-1.32733-2.14039-2.79425-2.18183q-2.06384-1.95309-4.12766-3.90625c.11927-2.881-.94317-4.79211-4.09466-4.9884l.03671.04559c.07861-1.54162.3136-3.19232-2.093-3.00024l.04688.051c.01-2.814.70074-6.03961-3.7298-6.1687a.94559.94559,0,0,1-.21383-.81531c.10769-1.11047.6636-2.43426.25265-3.298-3.48987-7.33423-4.45975-15.06207-4.23715-23.07785.086-3.09769-1.04556-6.34366-.45444-9.28754,1.037-5.164,3.02792-10.13174,4.49988-15.21628.40393-1.39535,2.11789-2.97165-.11127-4.353q.49791-.99843.99579-1.99686c3.62567-.10516,3.0993-2.72671,3.06183-5.052l-.02777.04486c2.28375.09583,2.07956-1.5217,2.06967-3.00543q.476-.5387.95215-1.07733a9.36916,9.36916,0,0,0,1.47958.80511c2.54849-3.2648,5.022-6.58816,7.5044-9.90466q.45222-.4146.90451-.82916c1.94235-.76181,4.12674-1.18027,5.78277-2.34809,5.561-3.92154,11.99729-5.77679,18.3404-7.476,10.32431-2.76575,20.85955-.92261,31.3334-.2656,6.33032.39707,10.77243,4.87592,16.35767,6.85636,1.19143.42251,1.91113,4.05453,1.72262,6.10437-.41137,4.473-1.54651,8.87942-2.56387,14.253h-4.89389l.04617.033c-.83572-1.03729-1.45859-2.53638-2.5422-3.0358-6.323-2.914-12.50715-5.279-19.94559-5.57239a59.38278,59.38278,0,0,0-19.9147,2.15168c-1.612.48846-5.03476.59347-4.53626,4.106q-.98337.63442-1.96667,1.2688c-1.51307.0116-3.16617-.16867-2.97742,2.17383q-1.93749,1.93941-3.875,3.87885c-2.126.15545-3.63205.757-2.39688,3.331l-.31262.37744c-4.144-1.17844-1.81742,2.14908-2.402,3.44931q-.59193,1.39124-1.18378,2.78247c-1.143,1.692-2.938,3.25379-3.30682,5.10047a49.82237,49.82237,0,0,0-.96051,16.9649c.82455,5.92358,3.27212,10.76782,6.16638,15.63721C-784.85222,583.9693-784.07829,583.863-783.5923,583.92786Z" transform="translate(1094.82311 -448.99129)" style="fill:#12181c"/><path d="M-688.7649,610.98926q-1.58739-1.73127-3.17475-3.4624-.9862-1.2302-1.97238-2.46033l.039.04816c-.06177-2.78046-.37237-5.40674-3.78613-6.11011q-.538-1.35618-1.07608-2.7124c.41394-.22156,1.21167-.51575,1.18548-.654-.56292-2.97393-1.52645-5.90356-1.78781-8.8963-.46914-5.372-1.52075-10.97784-.496-16.12085,1.17993-5.922,2.53906-12.16736,6.85251-17.09826.92779-1.06061.79654-3.0477,1.15311-4.608q2.49183-2.464,4.98373-4.92791c1.55664.00375,3.18954.10809,2.95923-2.24433q.50313-.3831,1.00616-.76626c2.31284-.80316,4.66364-1.51212,6.93177-2.42609,8.69116-3.50223,17.49884-5.93475,27-3.79016.94485.21329,2.08453-.43671,3.13381-.686q2.01752.51064,4.035,1.02121l2.14245.85135q.92331.08973,1.84668.17951c1.20093,2.56747,2.967,3.9967,5.95826,2.95822q2.00289,1.3368,4.00586,2.67361c-.02832,2.661,1.61792,3.33838,3.88531,3.28l1.1109,1.066q.73389.75022,1.46784,1.5004l-.284.25628.27338-.26776c-.67432,2.40683.47229,3.31262,2.7254,3.3064l-.04962-.05209c-.11615,1.56442-.3631,3.2185,2.07708,3.03128l-.05511-.05426c1.2522,4.17648,2.776,8.295,3.68262,12.54519.97119,4.553,2.09771,9.27646,1.809,13.84036-.32489,5.13587-2.18238,10.1706-3.28113,15.26917-.096.44556.49237,1.03857.76282,1.56311q-.99491,1.99731-1.98975,3.99469c-2.349-.02606-2.15082,1.5647-1.98859,3.13269l.053-.05548c-2.39947-.22235-2.1455,1.468-2.14489,2.97565q-3.561,3.459-7.12183,6.9179c-1.45746.00007-3.00043-.11718-2.85748,2.08075l.04455-.03082c-1.27032.27405-2.57007.4538-3.8056.83948-4.19708,1.30987-8.35864,3.76715-12.55731,3.8175-8.08414.09693-16.39548,2.19117-24.31855-1.41412a72.63033,72.63033,0,0,0-7.74087-2.85962c-1.86481-.60376-3.81-.95929-5.71927-1.4256q-.51058-.41025-1.02118-.82043C-684.747,611.39948-686.52812,610.91742-688.7649,610.98926Zm51.85876-46.92868.03906.04861c.09156-1.58392.23206-3.20248-2.14972-3.03381q-1.43-1.42786-2.85986-2.85571c.11377-2.49567-1.59949-2.22852-3.20721-2.12095q-1.36044-.58977-2.72083-1.17959c-.07-.318-.03088-.79968-.22617-.93-4.70529-3.14029-9.82922-1.63181-14.82968-1.176-.37121.03384-.62466,1.36008-.93286,2.08548q-4.922,3.57948-9.844,7.159c-2.4241-.09232-2.16709,1.5892-2.08667,3.1539l-1.14807,2.79049c-4.33463,1.28315-3.20969,5.35743-3.78675,8.21973-1.39361,6.91223,2.34467,12.74457,5.12491,18.66754.30927.65888,1.90485.71393,2.90387,1.04907q2.42629,1.99559,4.85254,3.99109c.83249,1.09442,1.4354,2.71088,2.53623,3.19495a21.79072,21.79072,0,0,0,16.736.71832c2.2543-.84149,5.7601-1.1225,5.65219-4.99371q3.01923-3.42674,6.03845-6.85333c.90015-.8089,2.37476-1.4831,2.60138-2.44977a73.90013,73.90013,0,0,0,2.24707-12.93311c.11371-2.21966.39508-5.317-2.68463-6.60388q-.61285-1.9887-1.22571-3.97748C-633.97676,564.20276-635.6277,564.229-636.90614,564.06058Z" transform="translate(1094.82311 -448.99129)" style="fill:#12181c"/><path d="M-197.861,544.01794q1.52033,1.52661,3.04065,3.05323c-.03376,2.14352-.20813,4.399,3.09405,3.88748l-.02655-.04114c.49481,1.71011.91339,3.447,1.50348,5.12363.76025,2.16043,2.00055,4.20617,2.42895,6.41855,1.09681,5.6636,2.85944,11.0668,2.31769,17.20175-.58539,6.62945-1.08551,13.06561-3.687,19.24011a13.808,13.808,0,0,0-.52057,3.355q-.50784.88358-1.01575,1.76727c-2.23742-.08874-2.04852,1.51722-2.07592,2.97217l.0039.00495c-5.01355.96215-7.86157,4.7901-10.91333,8.31951-.25244.292-.06445.96473-.08111,1.46058a.701.701,0,0,1-.775.30163c-1.27.24494-2.55389.4339-3.80725.74573-3.23828.8056-6.37408,2.04407-9.59936,2.86908-3.41394.87317-6.36292-.07276-9.49091.22443-7.55469.71771-15.04895.47564-21.718-4.02619-1.12731-.76092-2.55249-1.20111-2.89038.971q-.63482-.83679-1.26953-1.67365l.78186-.39251q-.44457.184-.88922.36792l-2.43127-.94171c.18048-2.36249-1.4477-2.23755-3.01691-2.19361q-2.952-3.012-5.90411-6.024c-.02088-1.46119.18927-3.085-2.08411-2.96033l.0304.04407a10.58029,10.58029,0,0,0-.1861-2.46009c-2.15295-6.78851-5.04608-13.26977-4.92889-20.74627.13336-8.50965-.11481-16.91028,4.055-24.71924a17.93891,17.93891,0,0,0,1.07263-4.24225l-.02331.039c2.22839.10907,2.04351-1.4895,2.07617-2.93411q2.96081-3.02592,5.92169-6.05179c1.49371-.0101,3.17987.24774,2.97009-2.13367l-.05542.05145c1.54645.13086,3.15259.35553,3.12409-1.98825q.97851-.5304,1.95709-1.06079c.8103.15039,1.87494.71073,2.39264.38953,7.22894-4.48486,15.53784-2.81854,23.30145-4.17975a5.95322,5.95322,0,0,1,2.39056.4642c4.21442,1.16782,8.421,2.36359,12.63251,3.54184,2.1778.60926,4.36023,1.20221,6.54053,1.80255l-.05835-.05688c-.19067,2.43619,1.45386,2.21,3.0274,2.08682l-.05322-.05322C-200.94893,544.12683-199.32448,543.96744-197.861,544.01794Zm-20.08954,12.06919.05938.06106c-.07751-.48715.02381-1.21441-.25939-1.42535-4.25379-3.16849-16.32148-3.71112-20.80762-.87338-.52893.33459-.5603,1.45572-.82233,2.21225q-3.58831,3.47237-7.17663,6.94479-1.24724.34437-2.49445.68881.41958.6921.83929,1.38419l-.31073,1.92618c-.61114.437-1.51019.73809-1.79,1.33136-4.0293,8.54052-2.19965,16.66919,1.97686,24.55395.29407.55512,1.32624.71918,2.01514,1.06506l-.02759-.04187c.69342,4.4361,1.67236,5.40113,6.082,5.99543l-.05151-.04279c.3258.70178.45831,1.72785,1.00732,2.05524,5.4812,3.26806,11.53345,2.74591,17.49152,2.22339,2.47668-.21711,4.7279-1.41059,5.37646-4.26978q1.88334-1.48581,3.76673-2.97156c1.21411-.88739,2.9234-1.5177,3.54407-2.71313a31.91992,31.91992,0,0,0,3.57183-9.14349c.66736-4.03583.43061-8.2367.35236-12.36213-.01086-.57251-1.3432-1.11993-2.06378-1.679q-.12121-.97935-.24249-1.95874c1.83746-1.50769.59674-1.80683-.80243-2.04376l-1.17188-2.74631c.09076-1.58551.36084-3.28919-2.103-3.19126q-2.40892-2.07183-4.81787-4.14361Q-217.37986,556.50492-217.95051,556.08713Z" transform="translate(1094.82311 -448.99129)" style="fill:#12181c"/><path d="M-462.788,616.68134a.67161.67161,0,0,1-.76989.40356c-1.62574.19952-3.99408-1.1051-4.15894,2.05334l.05017-.051c-2.60364.63123-5.19305,1.33075-7.81445,1.87671-3.42218.71271-6.86969,1.30371-10.30634,1.94708q-1.00982-.02124-2.01965-.0426c-.40656-.64819-.68085-1.69525-1.24078-1.8811-4.2558-1.41169-8.56745-2.65509-12.8617-3.95093q-1.978-1.92471-3.95593-3.84943c.078-1.56708.29645-3.2287-2.10461-3.12768q-.47435-1.00132-.94861-2.00275c-.08808-2.40869-.25922-4.81775-.24707-7.226.02606-5.15113.14691-10.30188.22894-15.45276l.13776-.37787q.47324-.48394.94641-.968c2.92975-.31506,1.82226-2.55584,1.99633-4.18536q4.054-3.28473,8.10785-6.56946l.94226-.29993q1.478-.54555,2.956-1.09118a4.41412,4.41412,0,0,0,6.05218.11773l-.00952-1.842q1.01092-.03177,2.022-.06347l.98584.91205c4.9729.32861,9.94251.74426,14.92078.92822,1.34619.04974,2.71838-.60187,4.07861-.93164q3.001.49658,6.002.993,1.49853-.001,2.99713-.00189c.23859-3.3869.51324-6.7724.64368-10.16345.00982-.25617-1.00666-.55179-1.546-.82908q-.57477-.92568-1.1496-1.85134c.42163-2.37177-.817-3.55216-2.806-4.63526-8.41077-4.57989-17.22058-3.93875-26.03327-1.9801-5.075,1.128-9.99456,2.95471-14.98413,4.46692q.00019-3.006.00031-6.01187c.62152-.79483,1.7157-1.55387,1.779-2.3909.221-2.92087.08557-5.86872.08557-9.07749,2.3197-.81356,4.73627-2.07522,7.28839-2.4783,7.56836-1.1954,15.0166-2.61816,22.88568-2.36294,7.64325.24786,14.62622,1.1716,21.20478,5.092,1.08819.6485,2.68884.43719,4.05267.62323l.17035.121c-1.04785,3.50555,1.30011,3.43341,3.59747,3.41458q.93567,1.44864,1.87128,2.89728a25.45114,25.45114,0,0,0,.81085,2.82431c2.72046,6.60272,4.5636,13.36517,4.13648,20.60586-.341,5.77991-.85828,11.5669-.82123,17.34772.05731,8.94885.54187,17.89447.78894,26.84308a37.698,37.698,0,0,1-.329,4.20038h-17.80152c-1.75952-1.88056.69056-5.04041-2.73559-5.65039-.30414-1.28229-.36267-3.094-2.29926-1.22382-1.06164,1.02527-2.02618,2.15088-3.03454,3.23126Q-461.907,615.846-462.788,616.68134Zm5.85749-30.60505.05169.0542c-.04693-2.99749-2.75634-2.59326-4.358-2.96258a54.57175,54.57175,0,0,0-12.5874-1.85962c-3.18475.03076-7.22424-.38257-8.94476,3.7865q-2.07633,2.45645-4.15278,4.91278c-3.9635,3.32623-3.87744,8.13116.19648,10.96832q1.48827,1.43664,2.97662,2.87323c.08655.48132.06982,1.33148.275,1.38892,3.41425.95569,6.85975,2.42553,10.29053,2.40625,1.49317-.00836,5.29712.17389,5.37665-3.51483q1.41587-.59447,2.83179-1.18891c1.58612.06958,3.25573.25836,3.09582-2.16675q2.125-2.89186,4.25012-5.78375c3.12745-1.86963,3.03376-4.86951,2.59693-7.87439C-455.09419,586.68634-456.27,586.41876-456.93049,586.07629Z" transform="translate(1094.82311 -448.99129)" style="fill:#12181b"/><path d="M-312.67311,596.01971q-.00009-3.524-.00024-7.048-.00018-1.97616-.00031-3.95227.00009-2.024.00012-4.048.00037-5.97592.00068-11.95185l.00055-5.04855.00036-9.95129q-.00054-6.02413-.001-12.04828c.5019-1.50141,1.00385-3.00278,1.52112-4.55005h19.07758v81.588H-312.671q-.00037-2.51916-.0008-5.03833Q-312.6724,604.99538-312.67311,596.01971Z" transform="translate(1094.82311 -448.99129)" style="fill:#12181c"/><path d="M-526.07533,621.68494h-23.55591V501.20044h23.55591Zm-2.71332-3.01953V503.37256h-19.51416V618.66541Z" transform="translate(1094.82311 -448.99129)" style="fill:#0a0c0e"/><path d="M-571.04225,621.69733h-23.50207V501.22818h23.50207Zm-2.04046-118.4346H-592.4413V618.716h19.35859Z" transform="translate(1094.82311 -448.99129)" style="fill:#040709"/><path d="M-290.601,502.93112q.94372,1.51763,1.88739,3.03525c-.32972.553-.92444,1.09842-.94025,1.66022-.0509,1.80789.32013,3.64325.13653,5.42767a50.95117,50.95117,0,0,1-1.28668,5.93256q-.47973.51237-.95941,1.02475a30.41756,30.41756,0,0,1-17.17651,1.03518q-1.46064-1.43343-2.92115-2.86688.012-7.64694.02393-15.29382.944-.96822,1.888-1.9365c2.2301.02311,4.44446.01712,5.14124-2.78762q1.01146-.043,2.023-.08609Q-296.69294,500.50349-290.601,502.93112Z" transform="translate(1094.82311 -448.99129)" style="fill:#12181c"/><path d="M-312.671,619.00946h20.59668v-81.588h-19.07758c-.51727,1.54727-1.01922,3.04864-1.52112,4.55005v-6.70761h23.05573v86.26275H-312.671Z" transform="translate(1094.82311 -448.99129)" style="fill:#060607"/><path d="M-391.918,508.9812c-.46314-1.69714-.92633-3.39429-1.51886-5.56543h-20.1037c-.09076,1.6947-.2768,3.306-.247,4.91333.19714,10.60758.66034,21.215.62341,31.82111-.07641,21.9158-.41577,43.83062-.63476,65.746-.03327,3.32562.0943,6.6554-.02863,9.97681-.10992,2.96978,1.10083,4.24829,4.11182,4.16192,4.32019-.12384,8.66156-.24829,12.96472.04926,2.62988.18176,3.85486-1.03272,4.824-3.05609v4.62195H-414.688V501.11847h22.77C-391.918,503.80618-391.918,506.39368-391.918,508.9812Z" transform="translate(1094.82311 -448.99129)" style="fill:#060607"/><path d="M-784.95118,615.10486c2.85281.70306,5.72589,1.334,8.55319,2.12787,3.36377.94458,6.67474,2.07592,10.03238,3.04388,8.28076,2.38721,16.78882-.08093,25.22433,1.155,4.0921.59949,8.63846-1.65234,12.934-2.78467,2.50232-.6596,4.85968-2.06158,7.38153-2.40893,3.67179-.50562,4.02143-2.83539,4.02234-5.66468.00119-3.656.05063-7.31286-.01327-10.96771-.082-4.6875-1.14707-5.18164-5.37439-3.49072-5.86063,2.34436-11.856,4.35638-17.824,6.423a13.69851,13.69851,0,0,1-3.41907.44324c-8.26886.62329-16.22509-1.36029-24.14987-3.21765-1.28564-.30127-2.12195-2.5199-3.16595-3.85223,19.33752,9.2033,37.534,4.96746,55.61773-4.99213v24.65918c-13.458,7.2456-28.10934,9.43713-43.36746,7.99487C-767.88026,622.68652-777.03,620.721-784.95118,615.10486Z" transform="translate(1094.82311 -448.99129)" style="fill:#0d0e0f"/><path d="M-903.84759,450.15942a24.04052,24.04052,0,0,1-4.70627.79392c-7.77271-.21112-15.54208-.85248-23.31084-.82541-10.33714.036-20.67088.65411-31.00934.82639q-13.57652.22626-27.15928-.011c-5.446-.09369-10.88535-.87229-16.3266-.86-6.20079.014-12.39752.68882-18.60166.83164-3.11683.07177-6.24311-.47135-9.37074-.60208a71.28188,71.28188,0,0,0-7.9188.003c-5.90352.41162-11.79529.99167-17.69185,1.50311,3.922-.93411,7.84039-2.66336,11.76639-2.6807q67.33211-.29745,134.6661-.0928C-910.289,449.05026-907.06852,449.77136-903.84759,450.15942Z" transform="translate(1094.82311 -448.99129)" style="fill:#0470fd"/><path d="M-724.89973,531.06128h4.89389c1.01736-5.37357,2.1525-9.78,2.56387-14.253.18851-2.04984-.53119-5.68186-1.72262-6.10437-5.58524-1.98044-10.02735-6.45929-16.35767-6.85636-10.47385-.657-21.00909-2.50015-31.3334.2656-6.34311,1.69922-12.77942,3.55447-18.3404,7.476-1.656,1.16782-3.84042,1.58628-5.78274,2.34809,11.64959-9.892,25.42145-13.45267,40.35287-13.37241,10.87509.05844,21.34741,2.04312,31.00885,7.30365,1.70185.9267,3.25662,2.12344,4.79566,3.14023-1.28885,8.32986-2.51932,16.28235-3.84632,24.85873C-721.09568,533.995-722.99769,532.52814-724.89973,531.06128Z" transform="translate(1094.82311 -448.99129)" style="fill:#0d0e0f"/><path d="M-455.69221,613.00336c3.42615.61.97607,3.76983,2.73559,5.65039h17.80152a37.698,37.698,0,0,0,.329-4.20038c-.24707-8.94861-.73163-17.89423-.78894-26.84308-.037-5.78082.48022-11.56781.82123-17.34772.42712-7.24069-1.416-14.00314-4.13648-20.60586a25.45114,25.45114,0,0,1-.81085-2.82431c4.34973,3.548,5.69159,8.78262,5.7857,13.72513.38666,20.30032.16163,40.61227.16163,61.12191h-21.62348C-455.5077,618.82507-455.6,615.91418-455.69221,613.00336Z" transform="translate(1094.82311 -448.99129)" style="fill:#0d0e0f"/><path d="M-869.70222,633.14679c.68359-3.71338,1.42587-7.41718,2.02988-11.14349a46.736,46.736,0,0,0,.8352-7.34833q.07727-59.18363.07147-118.36734a34.16344,34.16344,0,0,1,.797-5.21854c.094,7.8273.2612,15.65454.269,23.4819q.04948,49.239.031,98.47812C-865.66319,620.01825-865.89851,626.93341-869.70222,633.14679Z" transform="translate(1094.82311 -448.99129)" style="fill:#0268fe"/><path d="M-1092.86625,486.44141c-.30721,16.93328-.76085,33.86554-.88456,50.80017q-.23166,31.71314.00851,63.42907c.04907,7.77869.62026,15.554.9533,23.33081q-.4188-.00594-.8376-.01232c-.39384-3.25238-1.12361-6.504-1.13034-9.75721q-.12089-58.40469.02958-116.80948C-1094.71463,493.76-1093.51487,490.10165-1092.86625,486.44141Z" transform="translate(1094.82311 -448.99129)" style="fill:#0470fd"/><path d="M-445.3802,540.39957c-1.36383-.186-2.96448.02527-4.05267-.62323-6.57856-3.92044-13.56153-4.84418-21.20478-5.092-7.86908-.25522-15.31732,1.16754-22.88568,2.36294-2.55212.40308-4.96869,1.66474-7.28839,2.4783,0,3.20877.13544,6.15662-.08557,9.07749-.06329.837-1.15747,1.59607-1.779,2.3909-.0484-2.15689-.13275-4.31372-.13837-6.47074-.01575-6.0527-.04425-6.17648,5.50446-8.0281,13.49267-4.50251,27.21258-5.38907,40.95245-1.44489C-452.50422,536.1564-449.02894,538.58017-445.3802,540.39957Z" transform="translate(1094.82311 -448.99129)" style="fill:#0a0b0c"/><path d="M-333.69636,602.14667q1.15035-6.75028,2.30139-13.50043a29.23845,29.23845,0,0,0,.64838-3.88721c.1809-5.53143.58068-11.08477.26147-16.59308-.19855-3.42495-1.46582-6.80435-2.39233-10.16595-.85254-3.093-1.89081-6.13492-2.84723-9.19934,7.4303,10.52856,8.81958,22.42529,7.55237,34.79175a90.90716,90.90716,0,0,1-2.75251,13.51568C-331.393,598.90625-332.746,600.47406-333.69636,602.14667Z" transform="translate(1094.82311 -448.99129)" style="fill:#121415"/><path d="M-683.84712,615.01489c1.9093.46631,3.85446.82184,5.71927,1.4256a72.63033,72.63033,0,0,1,7.74087,2.85962c7.92307,3.60529,16.23441,1.511,24.31855,1.41412,4.19867-.05035,8.36023-2.50763,12.55731-3.8175,1.23553-.38568,2.53528-.56543,3.8056-.83948C-644.37379,627.08344-669.68757,626.28827-683.84712,615.01489Z" transform="translate(1094.82311 -448.99129)" style="fill:#0d0e0f"/><path d="M-807.919,534.9527c2.22913,1.38131.51517,2.95761.11124,4.353-1.472,5.08454-3.46289,10.05225-4.49988,15.21628-.59112,2.94388.54044,6.18985.45444,9.28754-.2226,8.01578.74728,15.74362,4.23715,23.07785.41095.86371-.145,2.1875-.25265,3.298-1.9574-5.63855-4.80661-11.14142-5.68949-16.94342-1.93405-12.71014-.92038-25.31311,4.78287-37.16955A6.80534,6.80534,0,0,1-807.919,534.9527Z" transform="translate(1094.82311 -448.99129)" style="fill:#121415"/><path d="M-266.84358,551.92505a17.93891,17.93891,0,0,1-1.07263,4.24225c-4.16986,7.809-3.92169,16.20959-4.055,24.71924-.11719,7.4765,2.77594,13.95776,4.92889,20.74627a10.58029,10.58029,0,0,1,.1861,2.46009C-277.03077,590.81726-277.71669,565.94061-266.84358,551.92505Z" transform="translate(1094.82311 -448.99129)" style="fill:#0d0e0f"/><path d="M-691.82795,548.91476c-.3566,1.56031-.22535,3.5474-1.15314,4.608-4.31345,4.9309-5.67258,11.17624-6.85251,17.09826-1.02472,5.143.02689,10.74884.496,16.12085.26136,2.99274,1.22489,5.92237,1.78781,8.8963.02619.13825-.77154.43244-1.18548.654C-705.0146,579.24854-703.73054,563.30762-691.82795,548.91476Z" transform="translate(1094.82311 -448.99129)" style="fill:#0d0e0f"/><path d="M-252.07338,617.8667c.33789-2.17212,1.76307-1.73193,2.89038-.971,6.66907,4.50183,14.16333,4.7439,21.718,4.02619,3.128-.29719,6.077.64874,9.49091-.22443,3.22528-.825,6.36108-2.06348,9.59936-2.86908,1.25336-.31183,2.53723-.50079,3.80725-.74573-8.9082,6.01288-18.857,7.6676-29.30035,6.57666C-240.27589,622.98981-246.5168,621.403-252.07338,617.8667Z" transform="translate(1094.82311 -448.99129)" style="fill:#0d0e0f"/><path d="M-189.71028,602.25653a13.808,13.808,0,0,1,.52057-3.355c2.6015-6.1745,3.10162-12.61066,3.687-19.24011.54175-6.135-1.22088-11.53815-2.31769-17.20175-.4284-2.21238-1.6687-4.25812-2.42895-6.41855-.59009-1.67658-1.00867-3.41352-1.50348-5.12363,6.79657,8.65631,8.62683,18.72434,8.27472,29.38193C-183.73646,588.1217-184.95009,595.6994-189.71028,602.25653Z" transform="translate(1094.82311 -448.99129)" style="fill:#0a0b0c"/><path d="M-771.79231,528.74374c-.4985-3.51254,2.92426-3.61755,4.53626-4.106a59.38278,59.38278,0,0,1,19.9147-2.15168c7.43844.29337,13.62262,2.65839,19.94559,5.57239,1.08361.49942,1.70648,1.99851,2.5422,3.0358-7.96741-4.20426-16.26227-6.99213-25.44125-7.146A43.727,43.727,0,0,0-771.79231,528.74374Z" transform="translate(1094.82311 -448.99129)" style="fill:#0d0e0f"/><path d="M-387.9637,615.12238c3.59839,1.47363,7.1427,3.10534,10.81488,4.36358a24.31019,24.31019,0,0,0,7.27808,1.45484c5.839.10833,11.77209.71673,17.3457-2.00238.65351-.31879,1.89032.55835,2.85675.881-8.92016,4.61249-18.24731,5.61731-27.61688,2.01513C-381.13569,620.35419-384.42115,617.404-387.9637,615.12238Z" transform="translate(1094.82311 -448.99129)" style="fill:#121415"/><path d="M-203.61549,539.86523c-2.1803-.60034-4.36273-1.19329-6.54053-1.80255-4.21155-1.17825-8.41809-2.374-12.63251-3.54184a5.95322,5.95322,0,0,0-2.39056-.4642c-7.76361,1.36121-16.07251-.30511-23.30145,4.17975-.5177.3212-1.58234-.23914-2.39264-.38956,4.07953-1.48053,8.052-3.67856,12.25879-4.30606C-226.33339,531.7088-214.28822,532.28918-203.61549,539.86523Z" transform="translate(1094.82311 -448.99129)" style="fill:#0a0b0c"/><path d="M-502.67659,557.0058c4.98957-1.51221,9.90918-3.339,14.98413-4.46692,8.81269-1.95865,17.6225-2.59979,26.03327,1.9801,1.98907,1.0831,3.22766,2.26349,2.806,4.63526-3.81073-4.38517-8.75067-5.93973-14.4173-6.17533a59.10124,59.10124,0,0,0-29.1,6.37439C-502.49128,558.42667-502.58394,557.71625-502.67659,557.0058Z" transform="translate(1094.82311 -448.99129)" style="fill:#0a0b0c"/><path d="M-613.70051,597.04187c-.27045-.52454-.85883-1.11755-.76282-1.56311,1.09875-5.09857,2.95624-10.1333,3.28113-15.26917.28869-4.5639-.83783-9.28735-1.809-13.84036-.90662-4.25018-2.43042-8.36871-3.68262-12.54519,3.86133,4.74691,5.598,10.43368,6.37317,16.286C-609.08125,579.31592-609.13185,588.50146-613.70051,597.04187Z" transform="translate(1094.82311 -448.99129)" style="fill:#0a0c0e"/><path d="M-783.5923,583.92786c-.486-.06488-1.25992.04144-1.41528-.21985-2.89426-4.86939-5.34183-9.71363-6.16638-15.63721a49.82237,49.82237,0,0,1,.96051-16.9649c.36886-1.84668,2.16382-3.40845,3.30682-5.10047C-791.76808,559.16766-790.815,571.82172-783.5923,583.92786Z" transform="translate(1094.82311 -448.99129)" style="fill:#0a0b0c"/><path d="M-978.06044,661.28149c1.34029-.42791,2.67917-1.22357,4.02106-1.22876q31.48607-.12075,62.97273-.02429a13.278,13.278,0,0,1,3.20661.82569q-31.87159.07534-63.74317.16217C-973.75589,661.02325-975.908,661.18933-978.06044,661.28149Z" transform="translate(1094.82311 -448.99129)" style="fill:#0268fe"/><path d="M-345.63063,538.87939a16.50056,16.50056,0,0,1-3.79248-.768,37.13085,37.13085,0,0,0-16.84234-3.42368c-3.58173.07709-6.87891,1.32941-10.36841,1.1547a7.85,7.85,0,0,1-2.13233-.75885C-367.11158,531.02872-355.99385,531.661-345.63063,538.87939Z" transform="translate(1094.82311 -448.99129)" style="fill:#0a0c0e"/><path d="M-645.81328,534.074c-1.04928.2493-2.189.8993-3.13381.686-9.50116-2.14459-18.30884.28793-27,3.79016-2.26813.914-4.61893,1.62293-6.93177,2.42606C-671.6475,532.64035-659.12642,531.23044-645.81328,534.074Z" transform="translate(1094.82311 -448.99129)" style="fill:#060607"/><path d="M-1034.09415,661.304c3.29251-.21,3.18314,2.2973,3.25329,4.35412.14076,4.1275-.03891,8.26532.06747,12.39484.11368,4.41278.40468,8.82086.61827,13.231-.85924-2.36335-2.30675-4.68915-2.46036-7.09754-.36655-5.74737-.01464-11.53692-.18742-17.30249C-1032.859,665.01276-1033.64306,663.16339-1034.09415,661.304Z" transform="translate(1094.82311 -448.99129)" style="fill:#1079fd"/><path d="M-457.70356,561.00558c.53936.27729,1.55584.57291,1.546.82908-.13044,3.39105-.40509,6.77655-.64368,10.16345q-1.49864.00092-2.99713.00189l-6.002-.993q-9.4997.00165-18.99939.00336l-.98584-.91205c6.09986-.14014,12.19922-.30713,18.29969-.40985,3.44531-.058,6.89245-.0105,10.77783-.0105Q-457.2053,565.34662-457.70356,561.00558Z" transform="translate(1094.82311 -448.99129)" style="fill:#0a0b0c"/><path d="M-508.93684,585.37787c-.082,5.15088-.20288,10.30163-.22894,15.45276-.01215,2.4082.159,4.81726.24707,7.226A26.29233,26.29233,0,0,1-508.93684,585.37787Z" transform="translate(1094.82311 -448.99129)" style="fill:#0a0c0e"/><path d="M-1065.89563,657.18738c.66485-.24555,1.4578-.86072,1.97546-.6814,8.48691,2.94068,17.27276,3.46839,26.14565,3.54022,1.2913.0105,2.57636.79242,3.86431,1.21735q-7.44588-.11443-14.8918-.22815A39.5802,39.5802,0,0,1-1065.89563,657.18738Z" transform="translate(1094.82311 -448.99129)" style="fill:#1079fd"/><path d="M-485.78743,622.91107c3.43665-.64337,6.88416-1.23437,10.30634-1.94708,2.6214-.546,5.21081-1.24548,7.81445-1.87671C-473.02675,623.58521-479.36665,623.4397-485.78743,622.91107Z" transform="translate(1094.82311 -448.99129)" style="fill:#0a0c0e"/><path d="M-308.93989,521.04675a30.41756,30.41756,0,0,0,17.17651-1.03518C-298.0002,525.15942-302.29884,525.41849-308.93989,521.04675Z" transform="translate(1094.82311 -448.99129)" style="fill:#0a0b0c"/><path d="M-501.90956,617.03644c4.29425,1.29584,8.6059,2.53924,12.8617,3.95093.55993.18585.83422,1.23291,1.24078,1.8811C-493.03651,622.20264-497.93208,620.72955-501.90956,617.03644Z" transform="translate(1094.82311 -448.99129)" style="fill:#0a0c0e"/><path d="M-203.79243,616.781c.0166-.49585-.17139-1.16858.08105-1.46058,3.05176-3.52941,5.89978-7.35736,10.91333-8.31945Q-198.29515,611.891-203.79243,616.781Z" transform="translate(1094.82311 -448.99129)" style="fill:#0d0e0f"/><path d="M-311.83711,502.88605q-.012,7.64689-.02393,15.29379C-315.9377,512.62-315.932,508.91537-311.83711,502.88605Z" transform="translate(1094.82311 -448.99129)" style="fill:#0a0b0c"/><path d="M-391.92469,541.98047c-.28766-.558-.82251-1.11447-.826-1.67423q-.07956-12.80465.00079-25.6098c.00354-.55823.54169-1.1131.83118-1.66955Q-391.92174,527.50366-391.92469,541.98047Z" transform="translate(1094.82311 -448.99129)" style="fill:#060607"/><path d="M-791.88331,514.76645c-2.48239,3.31647-4.95594,6.63983-7.50443,9.90463a9.368,9.368,0,0,1-1.47955-.80511Q-796.3753,519.3162-791.88331,514.76645Z" transform="translate(1094.82311 -448.99129)" style="fill:#0d0e0f"/><path d="M-290.804,518.98682a50.95117,50.95117,0,0,0,1.28668-5.93256c.1836-1.78442-.18743-3.61978-.13653-5.42767.01581-.5618.61053-1.10727.94025-1.66022C-286.63447,510.75217-287.26265,515.10336-290.804,518.98682Z" transform="translate(1094.82311 -448.99129)" style="fill:#0a0b0c"/><path d="M-290.601,502.93112q-6.09192-2.42762-12.1839-4.85528C-297.84834,497.498-293.66786,498.81729-290.601,502.93112Z" transform="translate(1094.82311 -448.99129)" style="fill:#0a0b0c"/><path d="M-1093.62659,623.98914q.41879.0064.83759.01232c1.01586,4.13349,4.82183,7.36841,3.90444,12.12446Q-1091.25556,630.05752-1093.62659,623.98914Z" transform="translate(1094.82311 -448.99129)" style="fill:#1079fd"/><path d="M-312.67311,596.01971q.00065,8.97574.00134,17.95142Q-312.6724,604.99538-312.67311,596.01971Z" transform="translate(1094.82311 -448.99129)" style="fill:#060607"/><path d="M-1029.10515,692.39233q4.71434.90253,9.42862,1.80518C-1023.28207,696.01239-1026.42024,695.386-1029.10515,692.39233Z" transform="translate(1094.82311 -448.99129)" style="fill:#1079fd"/><path d="M-349.0121,619.45441c-1.09277-1.70941-.38318-2.84906,1.31977-3.276a18.86412,18.86412,0,0,1,3.873-.18482Q-346.41571,617.72394-349.0121,619.45441Z" transform="translate(1094.82311 -448.99129)" style="fill:#121415"/><path d="M-807.65483,591.00061c4.43054.12909,3.73975,3.35474,3.7298,6.1687Z" transform="translate(1094.82311 -448.99129)" style="fill:#121415"/><path d="M-697.65916,599.00458c3.41376.70337,3.72436,3.32965,3.78613,6.11011Q-695.7661,602.05966-697.65916,599.00458Z" transform="translate(1094.82311 -448.99129)" style="fill:#0d0e0f"/><path d="M-312.67286,569.01965q-.00037,5.97593-.00068,11.95185Q-312.67317,574.99558-312.67286,569.01965Z" transform="translate(1094.82311 -448.99129)" style="fill:#060607"/><path d="M-631.83088,539.08426c-2.99128,1.03848-4.75733-.39075-5.95826-2.95822Q-634.81,537.60516-631.83088,539.08426Z" transform="translate(1094.82311 -448.99129)" style="fill:#060607"/><path d="M-790.94645,611.105c3.03546-.17175,5.25833.868,6.04245,4.0528Q-787.92524,613.13151-790.94645,611.105Z" transform="translate(1094.82311 -448.99129)" style="fill:#121415"/><path d="M-1062.98577,452.68054l-6.987,3.19318Z" transform="translate(1094.82311 -448.99129)" style="fill:#0470fd"/><path d="M-801.91563,600.073c3.15149.19629,4.21393,2.10736,4.09466,4.9884Q-799.86831,602.56723-801.91563,600.073Z" transform="translate(1094.82311 -448.99129)" style="fill:#121415"/><path d="M-312.67195,554.01981l-.00036,9.95129Z" transform="translate(1094.82311 -448.99129)" style="fill:#060607"/><path d="M-386.869,539.79437c-.11011,2.63449-1.50848,3.98947-4.11566,4.144Z" transform="translate(1094.82311 -448.99129)" style="fill:#060607"/><path d="M-803.86134,527.90387c.03744,2.32526.56381,4.94681-3.06183,5.052Q-805.39227,530.42989-803.86134,527.90387Z" transform="translate(1094.82311 -448.99129)" style="fill:#121415"/><path d="M-487.79811,572.00378a4.414,4.414,0,0,1-6.05212-.11773l3.06073-.83441Z" transform="translate(1094.82311 -448.99129)" style="fill:#121415"/><path d="M-304.80787,498.16193c-.69678,2.80474-2.91114,2.81073-5.14124,2.78762Q-307.37848,499.55576-304.80787,498.16193Z" transform="translate(1094.82311 -448.99129)" style="fill:#0a0b0c"/><path d="M-441.61238,543.93512c-2.29736.01883-4.64532.091-3.59747-3.41458Q-443.41111,542.22786-441.61238,543.93512Z" transform="translate(1094.82311 -448.99129)" style="fill:#0a0b0c"/><path d="M-191.72627,550.95868c-3.30218.51153-3.12781-1.744-3.09405-3.88751Q-193.27335,549.01492-191.72627,550.95868Z" transform="translate(1094.82311 -448.99129)" style="fill:#0a0b0c"/><path d="M-688.76494,610.98926c2.23682-.07184,4.018.41022,3.89664,3.2052Q-686.81659,612.59183-688.76494,610.98926Z" transform="translate(1094.82311 -448.99129)" style="fill:#0d0e0f"/><path d="M-773.719,593.95227c-2.29562.16852-4.10391-.28259-4.0093-3.1532Q-775.72368,592.3757-773.719,593.95227Z" transform="translate(1094.82311 -448.99129)" style="fill:#0d0e0f"/><path d="M-505.85627,579.84662c-.17414,1.62952.93335,3.8703-1.9964,4.18536q-.33729-.00567-.67426-.02337Q-507.19154,581.92761-505.85627,579.84662Z" transform="translate(1094.82311 -448.99129)" style="fill:#121415"/><path d="M-623.93971,545.03784c-2.26739.05841-3.91363-.61893-3.88531-3.28Z" transform="translate(1094.82311 -448.99129)" style="fill:#0a0c0e"/><path d="M-785.72285,543.223c.58456-1.30023-1.742-4.62775,2.402-3.44931Q-784.52186,541.49832-785.72285,543.223Z" transform="translate(1094.82311 -448.99129)" style="fill:#0a0b0c"/><path d="M-618.64619,550.89911c-2.25311.00622-3.39972-.89957-2.7254-3.30637Q-620.00893,549.246-618.64619,550.89911Z" transform="translate(1094.82311 -448.99129)" style="fill:#0a0c0e"/><path d="M-783.00825,539.39621c-1.23517-2.574.27087-3.17557,2.39688-3.331Q-781.80984,537.73067-783.00825,539.39621Z" transform="translate(1094.82311 -448.99129)" style="fill:#0a0b0c"/><path d="M-335.82551,606.99146q-.73242-.87543-1.46479-1.75086,1.47684-.31255,2.95362-.62506Q-335.0811,605.80344-335.82551,606.99146Z" transform="translate(1094.82311 -448.99129)" style="fill:#121415"/><path d="M-1074.89174,652.05524c1.76413-.04175,3.62861-.25147,3.8449,2.2973Q-1072.96928,653.20391-1074.89174,652.05524Z" transform="translate(1094.82311 -448.99129)" style="fill:#1079fd"/><path d="M-871.72389,637.29889c-.1488-1.84119-.18341-3.62524,2.12067-4.23944Q-870.66358,635.17918-871.72389,637.29889Z" transform="translate(1094.82311 -448.99129)" style="fill:#0268fe"/><path d="M-467.71681,619.13824c.16486-3.15844,2.5332-1.85382,4.15894-2.05334Z" transform="translate(1094.82311 -448.99129)" style="fill:#0a0c0e"/><path d="M-1019.49754,694.39191c.13608-2.655,2.04547-2.3722,3.82309-2.30774Q-1017.586,693.238-1019.49754,694.39191Z" transform="translate(1094.82311 -448.99129)" style="fill:#1079fd"/><path d="M-390.86842,612.04041q3.6427-.48376,2.94708,3.12451Z" transform="translate(1094.82311 -448.99129)" style="fill:#121415"/><path d="M-1086.19778,640.379c2.1021-.048,2.51479,1.13293,2.1138,2.90576Q-1085.14089,641.83194-1086.19778,640.379Z" transform="translate(1094.82311 -448.99129)" style="fill:#1079fd"/><path d="M-197.861,544.01794c-1.46351-.0505-3.088.10889-2.83869-2.176Z" transform="translate(1094.82311 -448.99129)" style="fill:#0a0b0c"/><path d="M-683.885,541.74249c.23031,2.35242-1.40259,2.24808-2.95923,2.24433Q-685.36466,542.86461-683.885,541.74249Z" transform="translate(1094.82311 -448.99129)" style="fill:#060607"/><path d="M-801.81947,524.94333c.00989,1.4837.21408,3.10123-2.06967,3.0054Q-802.85432,526.446-801.81947,524.94333Z" transform="translate(1094.82311 -448.99129)" style="fill:#121415"/><path d="M-776.7364,532.18634c-.18875-2.3425,1.46435-2.16223,2.97742-2.17383Q-775.24768,531.09947-776.7364,532.18634Z" transform="translate(1094.82311 -448.99129)" style="fill:#0a0b0c"/><path d="M-252.83027,538.90762c.0285,2.34381-1.57764,2.11914-3.12409,1.98828Q-254.39229,539.90178-252.83027,538.90762Z" transform="translate(1094.82311 -448.99129)" style="fill:#0a0b0c"/><path d="M-200.64644,541.8952c-1.57354.12314-3.21807.34934-3.0274-2.08685Q-202.1602,540.85178-200.64644,541.8952Z" transform="translate(1094.82311 -448.99129)" style="fill:#0a0b0c"/><path d="M-340.62123,542.93744c-1.52447-.08222-3.72308.51935-2.44232-2.40805Q-341.84241,541.7334-340.62123,542.93744Z" transform="translate(1094.82311 -448.99129)" style="fill:#0a0c0e"/><path d="M-255.89894,540.84448c.20978,2.38138-1.47638,2.12354-2.97009,2.13367Q-257.384,541.91134-255.89894,540.84448Z" transform="translate(1094.82311 -448.99129)" style="fill:#0a0b0c"/><path d="M-780.5807,587.92139c-2.36227.18878-2.22217-1.44806-2.192-3.00464Q-781.67668,586.419-780.5807,587.92139Z" transform="translate(1094.82311 -448.99129)" style="fill:#0d0e0f"/><path d="M-770.70515,595.94226c-1.49429.04962-3.12241.30219-3.05524-2.01532Q-772.23279,594.93457-770.70515,595.94226Z" transform="translate(1094.82311 -448.99129)" style="fill:#0d0e0f"/><path d="M-487.798,572.00378q-1.49578-.47607-2.99145-.95214,1.49094-.445,2.98193-.88984Z" transform="translate(1094.82311 -448.99129)" style="fill:#0a0b0c"/><path d="M-803.97191,597.11835c2.40659-.19208,2.1716,1.45862,2.093,3.00024Q-802.92541,598.6185-803.97191,597.11835Z" transform="translate(1094.82311 -448.99129)" style="fill:#121415"/><path d="M-617.67885,604.16925c-.16223-1.568-.36041-3.15875,1.98859-3.13269Q-616.68452,602.60294-617.67885,604.16925Z" transform="translate(1094.82311 -448.99129)" style="fill:#0a0c0e"/><path d="M-619.77076,607.08942c-.00061-1.50769-.25458-3.198,2.14489-2.97565Z" transform="translate(1094.82311 -448.99129)" style="fill:#0a0c0e"/><path d="M-266.88667,604.04883c2.27338-.12464,2.06323,1.49914,2.08411,2.96033Q-265.84462,605.529-266.88667,604.04883Z" transform="translate(1094.82311 -448.99129)" style="fill:#0d0e0f"/><path d="M-192.80195,606.996c.0274-1.455-.1615-3.06091,2.076-2.97217Q-191.764,605.5099-192.80195,606.996Z" transform="translate(1094.82311 -448.99129)" style="fill:#0a0b0c"/><path d="M-793.69331,608.96765c1.46692.04144,3.03265-.04364,2.79425,2.18183Q-792.29616,610.05853-793.69331,608.96765Z" transform="translate(1094.82311 -448.99129)" style="fill:#121415"/><path d="M-507.9701,610.05933c2.40106-.101,2.18261,1.5606,2.10461,3.12768Q-506.9178,611.6232-507.9701,610.05933Z" transform="translate(1094.82311 -448.99129)" style="fill:#0a0c0e"/><path d="M-616.61873,553.8783c-2.44018.18722-2.19323-1.46686-2.07708-3.03128Q-617.65724,552.36266-616.61873,553.8783Z" transform="translate(1094.82311 -448.99129)" style="fill:#0a0c0e"/><path d="M-258.89845,613.03314c1.56921-.04394,3.19739-.16888,3.01691,2.19361Q-257.39006,614.12993-258.89845,613.03314Z" transform="translate(1094.82311 -448.99129)" style="fill:#0d0e0f"/><path d="M-629.75007,616.08807c-.14295-2.19793,1.4-2.08068,2.85748-2.08075Q-628.32136,615.04765-629.75007,616.08807Z" transform="translate(1094.82311 -448.99129)" style="fill:#0d0e0f"/><path d="M-264.79072,549.02991c-.03266,1.44461.15222,3.04318-2.07617,2.93408Q-265.82887,550.49695-264.79072,549.02991Z" transform="translate(1094.82311 -448.99129)" style="fill:#0d0e0f"/><path d="M-337.64045,546.94531c-2.35578.07007-2.18915-1.55215-2.0965-3.12478Q-338.68876,545.38292-337.64045,546.94531Z" transform="translate(1094.82311 -448.99129)" style="fill:#0a0c0e"/><path d="M-1088.17321,637.293c1.98.15332,2.68019,1.11108,1.88961,3.006Q-1087.2284,638.79593-1088.17321,637.293Z" transform="translate(1094.82311 -448.99129)" style="fill:#1079fd"/><path d="M-693.912,605.06653q.98616,1.2302,1.97235,2.46033Q-692.92584,606.29666-693.912,605.06653Z" transform="translate(1094.82311 -448.99129)" style="fill:#0d0e0f"/><path d="M-312.67366,585.01947q.00009,1.97616.00031,3.95227Q-312.67353,586.99558-312.67366,585.01947Z" transform="translate(1094.82311 -448.99129)" style="fill:#060607"/><path d="M-343.38936,540.25073c-1.70953,1.04627-2.30548.29724-2.29754-1.4252Q-344.53809,539.53814-343.38936,540.25073Z" transform="translate(1094.82311 -448.99129)" style="fill:#0a0c0e"/><path d="M-1014.67384,691.18573c-.15608-1.62671.524-2.312,2.16129-1.91962Q-1013.59319,690.226-1014.67384,691.18573Z" transform="translate(1094.82311 -448.99129)" style="fill:#1079fd"/><path d="M-391.7209,612.03174q-.30579-.72675-.61157-1.45355c.28747-.06336.79419-.23835.82776-.17243a15.5611,15.5611,0,0,1,.66058,1.67066l-.43194-.14838Z" transform="translate(1094.82311 -448.99129)" style="fill:#121415"/><path d="M-1077.08613,650.27087q1.11832.91086,2.23665,1.82178Q-1075.96782,651.18179-1077.08613,650.27087Z" transform="translate(1094.82311 -448.99129)" style="fill:#1079fd"/><path d="M-1084.11026,643.20374q1.143,1.43957,2.28607,2.87908Q-1082.96722,644.64325-1084.11026,643.20374Z" transform="translate(1094.82311 -448.99129)" style="fill:#1079fd"/><path d="M-1059.97445,451.65005q-1.48965.573-2.97927,1.146Q-1061.4641,452.22307-1059.97445,451.65005Z" transform="translate(1094.82311 -448.99129)" style="fill:#0470fd"/><path d="M-1012.57443,689.32214q.90225-.62776,1.80457-1.25537Q-1011.67212,688.69446-1012.57443,689.32214Z" transform="translate(1094.82311 -448.99129)" style="fill:#1079fd"/><path d="M-334.10292,604.22675c-.79663-.91156-2.40356-1.99616.45435-2.12708Q-333.87571,603.16324-334.10292,604.22675Z" transform="translate(1094.82311 -448.99129)" style="fill:#121415"/><path d="M-462.788,616.68134q.881-.83524,1.762-1.67054Q-461.907,615.846-462.788,616.68134Z" transform="translate(1094.82311 -448.99129)" style="fill:#0a0c0e"/><path d="M-1079.91094,648.03363l1.83595,1.33832Z" transform="translate(1094.82311 -448.99129)" style="fill:#1079fd"/><path d="M-1071.03524,654.3114l1.9411,1.09625Z" transform="translate(1094.82311 -448.99129)" style="fill:#1079fd"/><path d="M-639.63582,535.94653l-2.14245-.85135Z" transform="translate(1094.82311 -448.99129)" style="fill:#060607"/><path d="M-621.361,547.60419q-.73389-.7502-1.46784-1.5004Q-622.09483,546.854-621.361,547.60419Z" transform="translate(1094.82311 -448.99129)" style="fill:#0a0c0e"/><path d="M-1088.9429,636.05688l.88939,1.21583Z" transform="translate(1094.82311 -448.99129)" style="fill:#1079fd"/><path d="M-873.71248,640.19659q.52466-.58457,1.04929-1.16906Q-873.18783,639.61209-873.71248,640.19659Z" transform="translate(1094.82311 -448.99129)" style="fill:#0268fe"/><path d="M-384.811,538.06763q-.57989.44182-1.15966.88366Q-385.39085,538.50947-384.811,538.06763Z" transform="translate(1094.82311 -448.99129)" style="fill:#060607"/><path d="M-873.90574,640.96405l.36251-.823A.96084.96084,0,0,1-873.90574,640.96405Z" transform="translate(1094.82311 -448.99129)" style="fill:#0268fe"/><path d="M-508.52693,584.00861q.33691.01776.67426.02337-.47314.48405-.94641.968Q-508.663,584.50434-508.52693,584.00861Z" transform="translate(1094.82311 -448.99129)" style="fill:#0a0c0e"/><path d="M-381.81746,536.13037q-.57714.41012-1.15442.82019Q-382.39472,536.54045-381.81746,536.13037Z" transform="translate(1094.82311 -448.99129)" style="fill:#060607"/><path d="M-1078.10528,649.28735l1.115,1.00122Z" transform="translate(1094.82311 -448.99129)" style="fill:#1079fd"/><path d="M-1069.07,655.26318q.605.479,1.21.95795Q-1068.46505,655.74212-1069.07,655.26318Z" transform="translate(1094.82311 -448.99129)" style="fill:#1079fd"/><path d="M-253.45027,616.16846q.44467-.18393.88922-.36792l-.78186.39251Z" transform="translate(1094.82311 -448.99129)" style="fill:#0d0e0f"/><path d="M-1069.91729,455.7796l-.8499.342A1.24879,1.24879,0,0,1-1069.91729,455.7796Z" transform="translate(1094.82311 -448.99129)" style="fill:#0470fd"/><path d="M-496.80623,572.97723l-.94226.29993Z" transform="translate(1094.82311 -448.99129)" style="fill:#0a0b0c"/><path d="M-1030.11409,691.28046q.52653.51516,1.053,1.03039Q-1029.58757,691.79569-1030.11409,691.28046Z" transform="translate(1094.82311 -448.99129)" style="fill:#1079fd"/><path d="M-1015.74432,692.1347l1.12186-1.05011Z" transform="translate(1094.82311 -448.99129)" style="fill:#1079fd"/><path d="M-921.85286,512.16528q1.25334,1.94481,2.50669,3.88953a43.03561,43.03561,0,0,1,.45111,4.438q.03918,26.209.0032,52.41824-1.48317.10309-2.96632.20624-1.44237-.00522-2.88472-.01056-1.5558-.00064-3.11162-.00122-1.9435.00009-3.887,0c-5.3123-.05768-10.62594-.21118-15.93643-.13733-3.25038.04523-6.18565,1.03839-7.97328,4.09448a1.07123,1.07123,0,0,0-.29863.87177l.08255-.03693-1.237,2.06116q-.29475,1.04892-.58948,2.09778-.08922,16.46549-.1785,32.9309l-.02906-.15625q-31.705.00111-63.41-.01806c-2.151-.00336-4.30162-.28913-6.45241-.44385q-2.207-2.20478-4.414-4.40948c-.18105-1.80494-.51793-3.60975-.51983-5.41486q-.04424-42.03708.00894-84.07419c.00216-1.8081.30134-3.61584.46235-5.42377l.53822-1.65612c2.62593-.78437,5.24454-2.22373,7.87891-2.25318q46.64544-.52185,93.29518-.601C-927.62814,510.53012-924.73994,511.59686-921.85286,512.16528Z" transform="translate(1094.82311 -448.99129)" style="fill:#fcfdfe"/><path d="M-921.85818,573.11725q1.48315-.10309,2.96632-.2063l1.05754-.039c3.63243.04889,7.2706-.012,10.89574.17688,3.76356.19623,7.09323,1.38263,8.98538,5.02679l.237.89636-.041-.04864c-.01252,15.27783-.04813,30.55566.00146,45.83331a21.00368,21.00368,0,0,0,.85434,4.16437c-1.35046,3.82068-3.75736,6.43146-7.97743,6.9657a12.84212,12.84212,0,0,0-3.18221-.85346q-19.232-.0888-38.46437.0008a13.0769,13.0769,0,0,0-3.19115.83972c-5.92486-2.12933-7.98962-4.905-8.10485-10.90961-.05735-2.9881-.10389-5.97638-.15531-8.9646l.0754-1.16852.02906.15625a13.56367,13.56367,0,0,0,1.0401-3.55133q.12907-13.11593-.00154-26.23388a12.646,12.646,0,0,0-.86006-3.14569q.29474-1.04892.58949-2.09778.61854-1.03052,1.237-2.06116l-.08255.03693.29863-.87177c1.78763-3.05609,4.7229-4.04925,7.97328-4.09448,5.31049-.07385,10.62413.07965,15.93643.13733q1.9435,0,3.887,0,1.5558.00065,3.11162.00122Q-923.30053,573.112-921.85818,573.11725Zm-22.92516,35.71167a10.14238,10.14238,0,0,0,2.9769,1.1253c3.3048.13434,6.61917.03278,9.92987.02192v11.76513c3.15288-.192,5.51222-.33557,8.19373-.49884V610.1499c4.575-.39715,8.71954-.757,12.66336-1.0993v-9.17145h-12.86385V587.34039h-8.07377V598.043l-1.8135,1.85559-9.08686-.01813q-.96582.10684-1.93161.21375Q-944.78622,604.46152-944.78334,608.82892Z" transform="translate(1094.82311 -448.99129)" style="fill:#836cd5"/><path d="M-1042.00216,584.93878a1.20313,1.20313,0,0,0-.82764.1554l-8.87907-1.55127q-2.42673-2.71692-4.85346-5.43378c-.08832-1.98639-.25236-3.97278-.25349-5.95923q-.02134-37.57269-.00169-75.14535a.38241.38241,0,0,0,.12289-.56977q.52186-1.19938,1.04373-2.39871l-.07367.07331q.42611-.56027.85388-1.11811a.69724.69724,0,0,0,.37853-.81637l-.1809.06616,1.10883-1.11865-.12329.14242,1.96281-1.23056-.05461.03873,1.19789-.94153-.13345.1004c2.48215-.23492,4.96252-.65259,7.44674-.677q45.7126-.44938,91.42624-.79846c6.62009,1.90213,8.00115,7.02042,7.98006,12.99942-1.31654.11063-2.63214.30478-3.94977.31961-27.25819.30646-54.517.56522-81.77427.93677-2.07159.02823-4.13268.82751-6.19866,1.26834q-1.11784.82479-2.23568,1.64966l-.84519.86578-1.18834,2.09866.09529-.067c-.60917,2.30957-1.68127,4.60669-1.74378,6.931-.21851,8.12585-.06694,16.26114-.09548,24.39273Q-1041.87809,562.04517-1042.00216,584.93878Z" transform="translate(1094.82311 -448.99129)" style="fill:#fbfcfe"/><path d="M-921.85286,512.16528c-2.88708-.56842-5.77528-1.63516-8.66108-1.62869q-46.64848.10459-93.29518.601c-2.63437.02945-5.253,1.46881-7.87891,2.25318-.21056-3.15512,1.8564-3.4177,4.23592-3.4086,7.15858.02734,14.319.11,21.47566-.01236q23.154-.39574,46.3043-.99765c7.01929-.18607,14.02993-.67853,21.048-.939,3.24846-.12054,6.51093-.13818,9.75646.01789C-925.88641,508.19437-922.95872,508.70013-921.85286,512.16528Z" transform="translate(1094.82311 -448.99129)" style="fill:#1079fd"/><path d="M-1056.81752,497.00455q-.00488,37.57269.0017,75.14535c.00113,1.98645.16517,3.97284.25349,5.95923-2.1893-.7793-2.2512-2.57684-2.24977-4.494.01813-24.15469-.02195-48.30954.09467-72.46368C-1058.71074,499.76617-1057.47908,498.38672-1056.81752,497.00455Z" transform="translate(1094.82311 -448.99129)" style="fill:#077cfe"/><path d="M-1042.00216,584.93878q.10453-22.89367.20445-45.78738c.02854-8.13159-.123-16.26688.09548-24.39273.06251-2.32428,1.13461-4.6214,1.74378-6.931q.07764,37.03788.1599,74.0758C-1039.79484,583.47485-1039.78945,584.999-1042.00216,584.93878Z" transform="translate(1094.82311 -448.99129)" style="fill:#077cfe"/><path d="M-951.84189,487.75644q-45.71326.38535-91.42624.79846c-2.48422.02438-4.96459.44205-7.44674.677,1.565-2.6662,4.1944-2.21319,6.63166-2.21527,21.81115-.01868,43.62282.06644,65.4332-.06567,7.61332-.04611,15.22188-.66544,22.83648-.89572C-954.36531,486.01144-952.274,485.14532-951.84189,487.75644Z" transform="translate(1094.82311 -448.99129)" style="fill:#0268fe"/><path d="M-1035.78452,503.28058c2.066-.44083,4.12706-1.24011,6.19865-1.26834,27.25728-.37155,54.51608-.63031,81.77427-.93677,1.31763-.01483,2.63323-.209,3.94977-.31961-.51008.718-.89563,1.87045-1.55716,2.06009a14.68817,14.68817,0,0,1-3.94969.168c-23.05254.00925-46.10533-.04706-69.15739.05948-5.75423.02658-11.506.57415-17.25893.88226Q-1035.77387,503.60313-1035.78452,503.28058Z" transform="translate(1094.82311 -448.99129)" style="fill:#0268fe"/><path d="M-896.90144,628.921a21.00368,21.00368,0,0,1-.85434-4.16437c-.04959-15.27765-.014-30.55548-.00146-45.83331q.698.56817,1.39608,1.13641c.13742,1.97327.38773,3.94623.39377,5.91993.0361,11.73474.056,23.47-.01681,35.2044-.01627,2.61786-.42521,5.23334-.65339,7.84992Z" transform="translate(1094.82311 -448.99129)" style="fill:#9f64cd"/><path d="M-1032.22624,515.04684c-.161,1.80793-.4602,3.61567-.46236,5.42377q-.05018,42.03708-.00894,84.07419c.0019,1.80511.33878,3.60992.51983,5.41486-2.55118-.84937-1.56512-3.02674-1.57368-4.649-.0754-14.26367-.04121-28.528-.04154-42.79212s-.05151-28.52868.0643-42.79187C-1033.71592,518.16278-1032.75,516.60663-1032.22624,515.04684Z" transform="translate(1094.82311 -448.99129)" style="fill:#005efe"/><path d="M-957.90136,614.83105l-.0754,1.16852c-21.54986-.00116-43.09985.02924-64.64932-.06292-1.74117-.00745-4.13078,1.20288-5.13767-1.56751,2.15079.15472,4.3014.44049,6.45241.44385Q-989.60639,614.86234-957.90136,614.83105Z" transform="translate(1094.82311 -448.99129)" style="fill:#005efe"/><path d="M-917.83432,572.872q-.52876.0195-1.05754.03906.00865-26.20913-.0032-52.41824a43.03561,43.03561,0,0,0-.45111-4.438c.51613,1.55994,1.47242,3.11746,1.48094,4.68018C-917.77038,538.11353-917.82214,555.49283-917.83432,572.872Z" transform="translate(1094.82311 -448.99129)" style="fill:#005efe"/><path d="M-896.63759,629.034c.22818-2.61658.63712-5.23206.65339-7.84992.07284-11.73443.05291-23.46966.01681-35.2044-.006-1.9737-.25635-3.94666-.39377-5.91993.51819.89576,1.48206,1.78864,1.488,2.68781q.14282,21.67108-.00946,43.343C-894.89039,627.07629-896.02635,628.053-896.63759,629.034Z" transform="translate(1094.82311 -448.99129)" style="fill:#077cfe"/><path d="M-949.7166,635.87378a13.0769,13.0769,0,0,1,3.19115-.83972q19.232-.0889,38.46437-.0008a12.84212,12.84212,0,0,1,3.18221.85346Q-927.29774,635.88023-949.7166,635.87378Z" transform="translate(1094.82311 -448.99129)" style="fill:#9f64cd"/><path d="M-1051.70887,583.54291l8.87907,1.55127C-1047.60605,586.79791-1049.5769,586.45355-1051.70887,583.54291Z" transform="translate(1094.82311 -448.99129)" style="fill:#077cfe"/><path d="M-1035.78453,503.28058q.01067.32259-.00047.64514l-2.23521,1.00452Q-1036.90238,504.10539-1035.78453,503.28058Z" transform="translate(1094.82311 -448.99129)" style="fill:#077cfe"/><path d="M-1055.65088,494.03607q-.5219,1.19934-1.04374,2.39871Q-1056.17273,495.23544-1055.65088,494.03607Z" transform="translate(1094.82311 -448.99129)" style="fill:#077cfe"/><path d="M-1051.7247,490.03427l-1.96281,1.23056Z" transform="translate(1094.82311 -448.99129)" style="fill:#0268fe"/><path d="M-1040.05374,507.89468l1.18834-2.09866Z" transform="translate(1094.82311 -448.99129)" style="fill:#077cfe"/><path d="M-1050.58142,489.13147l-1.19789.94153Z" transform="translate(1094.82311 -448.99129)" style="fill:#0268fe"/><path d="M-897.7162,578.972l-.237-.89636A1.8414,1.8414,0,0,1-897.7162,578.972Z" transform="translate(1094.82311 -448.99129)" style="fill:#9f64cd"/><path d="M-1054.87068,492.99127q-.42735.55844-.85388,1.11811-.03133-.55683-.06435-1.116Q-1055.32979,492.991-1054.87068,492.99127Z" transform="translate(1094.82311 -448.99129)" style="fill:#077cfe"/><path d="M-1054.87067,492.99127q-.45912-.00032-.91824.00211l1.29676-.81848A.69724.69724,0,0,1-1054.87067,492.99127Z" transform="translate(1094.82311 -448.99129)" style="fill:#0268fe"/><path d="M-1053.56422,491.12241l-1.10883,1.11865Z" transform="translate(1094.82311 -448.99129)" style="fill:#0268fe"/><path d="M-391.18416,571.009q.15537,10.49451.3108,20.98908c-.94922-.7525-2.39472-1.31568-2.76593-2.2887-2.21564-5.80713-.80256-11.70874.06152-17.54907C-393.50514,571.66925-392.01552,571.38788-391.18416,571.009Z" transform="translate(1094.82311 -448.99129)" style="fill:#0d0e0f"/><path d="M-383.97334,600.56085c6.01654,3.75037,12.43024,4.2392,19.13593,2.33026q.0216.55234.04309,1.10468l-.00971.00989c-1.79016,3.62561-5.01318,1.18634-7.49212,1.57354a15.47,15.47,0,0,1-10.84571-2.39135C-383.73665,602.80249-383.712,601.46094-383.97334,600.56085Z" transform="translate(1094.82311 -448.99129)" style="fill:#0d0e0f"/><path d="M-351.67811,580.995c.1831-6.67963-.8277-13.08576-4.33423-18.92014a9.59231,9.59231,0,0,1,2.58465,1.8129c3.24915,4.57141,3.249,9.9768,3.52326,15.25781C-349.874,579.72974-351.05763,580.377-351.67811,580.995Z" transform="translate(1094.82311 -448.99129)" style="fill:#0a0c0e"/><path d="M-369.805,553.88568q-6.15646,1.30418-12.31287,2.60831c-1.497-4.035,2.89874-2.37677,4.1911-3.8262,1.14294-1.28193,4.75427-.41935,7.27112-.34494C-370.35695,552.3317-370.08784,553.34042-369.805,553.88568Z" transform="translate(1094.82311 -448.99129)" style="fill:#0a0c0e"/><path d="M-360.87019,557.19855q-3.48825-1.53786-6.97644-3.07569C-363.96895,553.09381-362.14222,553.89917-360.87019,557.19855Z" transform="translate(1094.82311 -448.99129)" style="fill:#0a0c0e"/><path d="M-353.97517,591.93817q1.02868-3.48843,2.05737-6.97681c.60565.176,1.21131.35206,1.96094.56989-1.01233,2.30414-1.92676,4.3855-2.84119,6.46686l-.00384.00378Z" transform="translate(1094.82311 -448.99129)" style="fill:#0a0c0e"/><path d="M-388.78157,595.94281q2.18106,2.1133,4.36212,4.22668C-388.47963,601.45026-388.51692,598.57922-388.78157,595.94281Z" transform="translate(1094.82311 -448.99129)" style="fill:#0d0e0f"/><path d="M-357.95247,597.94684q1.54194-2.07093,3.08374-4.142C-354.72163,596.06036-354.398,598.4472-357.95247,597.94684Z" transform="translate(1094.82311 -448.99129)" style="fill:#0a0c0e"/><path d="M-389.50923,564.98334q-.612,1.52028-1.224,3.04052-.03525-1.51015-.07055-3.02038l.00756-.00824Z" transform="translate(1094.82311 -448.99129)" style="fill:#0d0e0f"/><path d="M-362.90742,601.96454q1.5239-1.06778,3.04779-2.13562C-359.7231,602.18549-361.3683,601.99933-362.90742,601.96454Z" transform="translate(1094.82311 -448.99129)" style="fill:#0a0c0e"/><path d="M-386.5171,560.09918l-1.72467,2.60394C-389.17653,560.83524-388.40645,560.09656-386.5171,560.09918Z" transform="translate(1094.82311 -448.99129)" style="fill:#0a0c0e"/><path d="M-382.384,556.69455q-1.17133.75691-2.34272,1.51376C-384.70948,556.52179-384.13142,555.70334-382.384,556.69455Z" transform="translate(1094.82311 -448.99129)" style="fill:#0a0c0e"/><path d="M-389.08094,562.43106l-.041.2912-.81885-.05313Z" transform="translate(1094.82311 -448.99129)" style="fill:#0d0e0f"/><path d="M-352.79811,591.99811l.44879.45727c-.09631-.025-.22851-.01983-.28088-.082a1.46856,1.46856,0,0,1-.17169-.37152Z" transform="translate(1094.82311 -448.99129)" style="fill:#0a0c0e"/><path d="M-390.80378,565.00348q-.22486-.23035-.44977-.46063c.097.02453.22973.01852.28277.08065a1.47126,1.47126,0,0,1,.17456.37177Z" transform="translate(1094.82311 -448.99129)" style="fill:#0d0e0f"/><path d="M-364.79432,603.99579l.45184.45837c-.09674-.02392-.22864-.01715-.28223-.07861a1.48845,1.48845,0,0,1-.17932-.36987Z" transform="translate(1094.82311 -448.99129)" style="fill:#0d0e0f"/><path d="M-676.87211,568.002c-2.5669,9.91663-2.04694,19.36451,4.242,27.93634-.999-.33514-2.5946-.39019-2.90387-1.04907-2.78024-5.923-6.51852-11.75531-5.12491-18.66754C-680.0818,573.35944-681.20674,569.28516-676.87211,568.002Z" transform="translate(1094.82311 -448.99129)" style="fill:#0d0e0f"/><path d="M-667.77754,599.92944c8.50324,4.14112,16.81833,3.94135,24.92438-1.08044.10791,3.87121-3.39789,4.15222-5.65219,4.99371a21.79072,21.79072,0,0,1-16.736-.71832C-666.34214,602.64032-666.945,601.02386-667.77754,599.92944Z" transform="translate(1094.82311 -448.99129)" style="fill:#0d0e0f"/><path d="M-636.81471,591.99567c1.78516-4.90216,3.73486-9.77021,3.02539-15.17151-.29822-2.27033-.57507-4.5434-.86157-6.81525,3.07971,1.28693,2.79834,4.38422,2.68463,6.60388a73.90013,73.90013,0,0,1-2.24707,12.93311C-634.43995,590.51257-635.91456,591.18677-636.81471,591.99567Z" transform="translate(1094.82311 -448.99129)" style="fill:#0a0b0c"/><path d="M-647.8047,554.91913q-7.99434-.01031-15.98871-.02057c.3082-.72537.56165-2.05161.93286-2.08545,5.00046-.45581,10.12439-1.96429,14.82968,1.176C-647.83558,554.11945-647.87474,554.60114-647.8047,554.91913Z" transform="translate(1094.82311 -448.99129)" style="fill:#0a0b0c"/><path d="M-673.63737,562.05762l-2.08667,3.1539C-675.80446,563.64682-676.06147,561.9653-673.63737,562.05762Z" transform="translate(1094.82311 -448.99129)" style="fill:#0d0e0f"/><path d="M-636.86708,564.10919q-1.07482-1.51689-2.14972-3.03381C-636.635,560.90671-636.77552,562.52527-636.86708,564.10919Z" transform="translate(1094.82311 -448.99129)" style="fill:#0a0b0c"/><path d="M-641.87666,558.21967q-1.60363-1.06051-3.20721-2.12095C-643.47615,555.99115-641.76289,555.724-641.87666,558.21967Z" transform="translate(1094.82311 -448.99129)" style="fill:#0a0b0c"/><path d="M-635.8766,566.03143q-.5148-.98543-1.02954-1.97085C-635.6277,564.229-633.97676,564.20276-635.8766,566.03143Z" transform="translate(1094.82311 -448.99129)" style="fill:#0a0b0c"/><path d="M-248.923,567.00568a33.95387,33.95387,0,0,0,2.202,26.95037c-.6889-.34588-1.72107-.50994-2.01514-1.06506-4.17651-7.88476-6.00616-16.01343-1.97686-24.55395C-250.43318,567.74377-249.53413,567.44263-248.923,567.00568Z" transform="translate(1094.82311 -448.99129)" style="fill:#0d0e0f"/><path d="M-213.07606,596.90411c5.7456-7.80951,7.15674-16.52356,5.40448-25.89776.72058.55908,2.05292,1.1065,2.06378,1.679.07825,4.12543.315,8.3263-.35236,12.36213A31.91992,31.91992,0,0,1-209.532,594.191C-210.15266,595.38641-211.86195,596.01672-213.07606,596.90411Z" transform="translate(1094.82311 -448.99129)" style="fill:#0a0b0c"/><path d="M-240.71809,599.86682c7.95691,4.0976,15.9154,4.04157,23.87537.00891-.64863,2.85913-2.89985,4.05261-5.37653,4.26972-5.95807.52252-12.01032,1.04467-17.49152-2.22339C-240.25978,601.59467-240.39229,600.5686-240.71809,599.86682Z" transform="translate(1094.82311 -448.99129)" style="fill:#0d0e0f"/><path d="M-217.89113,556.14819a27.78114,27.78114,0,0,0-21.88934-.08648c.262-.75653.2934-1.87766.82233-2.21225,4.48614-2.83774,16.55383-2.29511,20.80762.87338C-217.86732,554.93378-217.96864,555.661-217.89113,556.14819Z" transform="translate(1094.82311 -448.99129)" style="fill:#0a0b0c"/><path d="M-246.74861,593.91418l6.082,5.99543C-245.07625,599.31531-246.05519,598.35028-246.74861,593.91418Z" transform="translate(1094.82311 -448.99129)" style="fill:#0d0e0f"/><path d="M-246.9571,563.00647q-.82764,1.03647-1.65522,2.073-.41967-.6921-.83923-1.38419Z" transform="translate(1094.82311 -448.99129)" style="fill:#0d0e0f"/><path d="M-209.88838,564.25754l-2.103-3.19126C-209.52754,560.96835-209.79762,562.672-209.88838,564.25754Z" transform="translate(1094.82311 -448.99129)" style="fill:#0a0b0c"/><path d="M-207.91407,569.04761q-.40119-1.02192-.80243-2.04376C-207.31733,567.24078-206.07661,567.53992-207.91407,569.04761Z" transform="translate(1094.82311 -448.99129)" style="fill:#0a0b0c"/><path d="M-216.80922,556.92267q-.57064-.41781-1.14129-.83551Z" transform="translate(1094.82311 -448.99129)" style="fill:#0a0b0c"/><path d="M-456.8788,586.13049c-8.54773-2.40411-17.08245-5.13232-25.89019-1.0357,1.72052-4.16907,5.76-3.75574,8.94476-3.7865a54.57175,54.57175,0,0,1,12.5874,1.85962C-459.63514,583.53723-456.92573,583.133-456.8788,586.13049Z" transform="translate(1094.82311 -448.99129)" style="fill:#0a0b0c"/><path d="M-483.74867,603.84912c5.27118,2.53278,10.59711,1.95056,15.9422.28034-.07953,3.68872-3.88348,3.50647-5.37665,3.51483-3.43078.01928-6.87628-1.45056-10.29053-2.40625C-483.67885,605.1806-483.66212,604.33044-483.74867,603.84912Z" transform="translate(1094.82311 -448.99129)" style="fill:#0a0b0c"/><path d="M-486.92177,590.00757a14.73574,14.73574,0,0,0,.19648,10.96832C-490.79921,598.13873-490.88527,593.3338-486.92177,590.00757Z" transform="translate(1094.82311 -448.99129)" style="fill:#0a0b0c"/><path d="M-484.79976,571.01038q9.49969-.00174,18.99939-.00342c-1.36023.32977-2.73242.98138-4.07861.93164C-474.85725,571.75464-479.82686,571.339-484.79976,571.01038Z" transform="translate(1094.82311 -448.99129)" style="fill:#121415"/><path d="M-457.62874,594.99005q.3491-4.45687.69825-8.91376c.66046.34247,1.8363.61005,1.89868,1.03937C-454.595,590.12054-454.50129,593.12042-457.62874,594.99005Z" transform="translate(1094.82311 -448.99129)" style="fill:#0a0b0c"/><path d="M-464.97468,602.94055q1.54788-1.08335,3.09582-2.16675C-461.71895,603.19891-463.38856,603.01013-464.97468,602.94055Z" transform="translate(1094.82311 -448.99129)" style="fill:#0a0b0c"/><path d="M-459.79835,572q1.49853-.001,2.99707-.00189Q-458.29983,571.999-459.79835,572Z" transform="translate(1094.82311 -448.99129)" style="fill:#121415"/><path d="M-528.78865,618.66541h-19.51416V503.37256h19.51416V618.66541Z" transform="translate(1094.82311 -448.99129)" style="fill:#12181c"/><path d="M-573.08271,503.26273V618.716H-592.4413V503.26273Z" transform="translate(1094.82311 -448.99129)" style="fill:#11181c"/><path d="M-957.6938,582.0564a12.646,12.646,0,0,1,.86006,3.14569q.10989,13.11648.00154,26.23388a13.56367,13.56367,0,0,1-1.0401,3.55133Q-957.783,598.52182-957.6938,582.0564Z" transform="translate(1094.82311 -448.99129)" style="fill:#6548ca"/><path d="M-927.85452,573.10553q-1.9435,0-3.887-.00006Q-929.798,573.10547-927.85452,573.10553Z" transform="translate(1094.82311 -448.99129)" style="fill:#6548ca"/><path d="M-921.85818,573.11725q-1.44237-.00522-2.88472-.01056Q-923.30053,573.112-921.85818,573.11725Z" transform="translate(1094.82311 -448.99129)" style="fill:#6548ca"/><path d="M-955.86732,577.89746q-.61847,1.0306-1.237,2.06116Q-956.48582,578.928-955.86732,577.89746Z" transform="translate(1094.82311 -448.99129)" style="fill:#6548ca"/><path d="M-955.65124,577.06262l-.29863.87177A1.07123,1.07123,0,0,1-955.65124,577.06262Z" transform="translate(1094.82311 -448.99129)" style="fill:#6548ca"/><path d="M-931.95709,598.043c0-3.46314,0-6.92633,0-10.70258h8.07377v12.53876h12.86385v9.17145c-3.94382.34234-8.08834.70215-12.66336,1.0993v11.09253c-2.68151.16327-5.04085.30689-8.19373.49884V609.97614a6.81472,6.81472,0,0,0-2.27681-1.03669c-3.53982-.13122-7.086-.0899-10.63-.11059q-.00288-4.36725-.00573-8.73468l1.93161-.21369q4.54344.009,9.08688.01807Q-932.8638,598.97086-931.95709,598.043Z" transform="translate(1094.82311 -448.99129)" style="fill:#fbfbfd"/><path d="M-944.78334,608.82886c3.54392.02069,7.09014-.02063,10.63.11059a6.81472,6.81472,0,0,1,2.27681,1.03669c-3.3107.01086-6.62507.11242-9.92987-.02192A10.14089,10.14089,0,0,1-944.78334,608.82886Z" transform="translate(1094.82311 -448.99129)" style="fill:#6548ca"/><path d="M-931.95709,598.043q-.90672.92789-1.81349,1.85559Q-932.86386,598.97077-931.95709,598.043Z" transform="translate(1094.82311 -448.99129)" style="fill:#6548ca"/><path d="M-942.85746,599.88049q-.96582.10685-1.93163.21363Q-943.82327,599.98727-942.85746,599.88049Z" transform="translate(1094.82311 -448.99129)" style="fill:#6548ca"/></svg>