<?xml version="1.0" encoding="utf-8"?>
<!-- Generator: Adobe Illustrator 25.2.1, SVG Export Plug-In . SVG Version: 6.00 Build 0)  -->
<svg version="1.1" id="Layer_1" xmlns="http://www.w3.org/2000/svg" xmlns:xlink="http://www.w3.org/1999/xlink" x="0px" y="0px"
	 viewBox="0 0 911.4 246.2" style="enable-background:new 0 0 911.4 246.2;" xml:space="preserve">
<style type="text/css">
	.st0{fill:#1C89FE;}
	.st1{fill:#FFFFFF;}
	.st2{fill:#0A0C0E;}
	.st3{fill:#040709;}
	.st4{fill:#060607;}
	.st5{fill:#0D0E0F;}
	.st6{fill:#0470FD;}
	.st7{fill:#0268FE;}
	.st8{fill:#0A0B0C;}
	.st9{fill:#121415;}
	.st10{fill:#1079FD;}
	.st11{fill:#FCFDFE;}
	.st12{fill:#836CD5;}
	.st13{fill:#FBFCFE;}
	.st14{fill:#077CFE;}
	.st15{fill:#9F64CD;}
	.st16{fill:#005EFE;}
	.st17{fill:#6548CA;}
	.st18{fill:#FBFBFD;}
</style>
<path class="st0" d="M220.9,192c-8.1,12.1-19.7,18.2-34,19.9c-1-0.4-2.1-0.7-3.2-0.8c-21,0-42,0-63,0c-1.3,0-2.7,0.8-4,1.2
	c-10.4,8.6-20.7,17.1-31.1,25.7c-0.5,0.4-1.1,0.8-1.6,1.1c-0.6,0.4-1.2,0.8-1.8,1.3l0.1-0.1c-1.6-0.4-2.3,0.3-2.2,1.9l0.1-0.1
	l-1.1,1.1l0.1-0.1c-1.8-0.1-3.7-0.3-3.8,2.3l-0.2-0.2c-3.1-0.6-6.3-1.2-9.4-1.8l0-0.1c-0.4-0.3-0.7-0.7-1.1-1l0,0
	c-0.2-4.4-0.5-8.8-0.6-13.2c-0.1-4.1,0.1-8.3-0.1-12.4c-0.1-2.1,0-4.6-3.3-4.4l0.2,0c-1.3-0.4-2.6-1.2-3.9-1.2
	c-8.9-0.1-17.7-0.6-26.1-3.5c-0.5-0.2-1.3,0.4-2,0.7l-2-1c-0.4-0.3-0.8-0.6-1.2-1l0,0.1l-1.9-1.1l0,0c-0.2-2.5-2.1-2.3-3.8-2.3l0,0
	c-0.7-0.6-1.5-1.2-2.2-1.8l0.1,0l-1.1-1l0,0.1l-1.8-1.3l-1.9-2c-0.8-1-1.5-1.9-2.3-2.9l0,0.1c0.4-1.8,0-3-2.1-2.9l-0.1-0.1
	c0.8-1.9,0.1-2.9-1.9-3l0.1,0l-0.9-1.2l0.1,0.1c0.9-4.8-2.9-8-3.9-12.1c-0.3-7.8-0.9-15.6-1-23.3c-0.1-21.1-0.1-42.3,0-63.4
	C1.2,71.3,1.6,54.4,2,37.4c0.4-2.4,1-4.7,1.7-7c4.2-10,10.8-18,20.4-23.3l0.8-0.3l-0.1,0.1l7-3.2l0,0.1c1-0.4,2-0.8,3-1.1l0,0.2
	c5.9-0.5,11.8-1.1,17.7-1.5c2.6-0.1,5.3-0.1,7.9,0c3.1,0.1,6.3,0.7,9.4,0.6c6.2-0.1,12.4-0.8,18.6-0.8c5.4,0,10.9,0.8,16.3,0.9
	c9.1,0.2,18.1,0.2,27.2,0c10.3-0.2,20.7-0.8,31-0.8c7.8,0,15.5,0.6,23.3,0.8c1.6-0.1,3.2-0.4,4.7-0.8c20,4.2,35.2,20.6,37.9,40.9
	c-0.4,1.7-0.7,3.5-0.8,5.2c0,39.5-0.1,78.9-0.1,118.4c-0.1,2.5-0.4,4.9-0.8,7.3c-0.6,3.7-1.3,7.4-2,11.1l0.1-0.1
	c-2.3,0.6-2.3,2.4-2.1,4.2l-0.9,1.7c-0.3,0.4-0.7,0.8-1,1.2l0.2-0.1L220.9,192z M40.2,43.2l0.2-0.1L39,44l0.1,1.1l0.1-0.1l-1,2.4
	c0.1,0.2,0.1,0.4-0.1,0.5c0,0,0,0-0.1,0c-0.7,1.4-1.9,2.8-1.9,4.1C36,76.3,36,100.5,36,124.6c0,1.9,0.1,3.7,2.2,4.5
	c1.6,1.8,3.2,3.6,4.9,5.4c2.1,2.9,4.1,3.3,8.9,1.6c0.2-0.1,0.5-0.2,0.8-0.2c2.2,0.1,2.2-1.5,2.2-3c-0.1-24.7-0.1-49.4-0.2-74.1
	l-0.1,0.1l1.2-2.1l0.8-0.9l2.2-1c5.8-0.3,11.5-0.9,17.3-0.9c23.1-0.1,46.1-0.1,69.2-0.1c1.3,0.1,2.6,0.1,3.9-0.2
	c0.7-0.2,1-1.3,1.6-2.1c0-6-1.4-11.1-8-13c-0.4-2.6-2.5-1.7-4-1.7c-7.6,0.2-15.2,0.8-22.8,0.9c-21.8,0.1-43.6,0-65.4,0.1
	c-2.4,0-5.1-0.5-6.6,2.2l0.1-0.1L43,41.1l0.1,0l-2,1.2l0.1-0.1L40.2,43.2z M198.2,180c0.6-1,1.7-2,1.8-2.9c0.1-14.4,0.1-28.9,0-43.3
	c0-0.9-1-1.8-1.5-2.7c-0.5-0.4-0.9-0.8-1.4-1.1l0,0c0-0.3-0.1-0.6-0.2-0.9c-1.9-3.6-5.2-4.8-9-5c-3.6-0.2-7.3-0.1-10.9-0.2
	c0-17.4,0.1-34.8,0-52.1c0-1.6-1-3.1-1.5-4.7c-0.8-1.3-1.7-2.6-2.5-3.9c-1.1-3.5-4-4-7-4.1c-3.2-0.2-6.5-0.1-9.8,0
	c-7,0.3-14,0.8-21,0.9c-15.4,0.4-30.9,0.7-46.3,1c-7.2,0.1-14.3,0-21.5,0c-2.4,0-4.4,0.3-4.2,3.4c-0.2,0.6-0.4,1.1-0.5,1.7
	c-0.5,1.6-1.5,3.1-1.5,4.7C61,85,61,99.3,61,113.5s0,28.5,0,42.8c0,1.6-1,3.8,1.6,4.6c1.5,1.5,2.9,2.9,4.4,4.4
	c1,2.8,3.4,1.6,5.1,1.6c21.5,0.1,43.1,0.1,64.6,0.1c0.1,3,0.1,6,0.2,9c0.1,6,2.2,8.8,8.1,10.9c14.9,0,29.9,0,44.8,0
	c4.2-0.5,6.6-3.1,8-7L198.2,180z"/>
<path class="st1" d="M710,89.1c0.6-0.4,1.2-0.7,1.8-1.1c0.4-0.3,0.8-0.5,1.2-0.8l3.1-1c0.7,0.4,1.4,0.6,2.1,0.8
	c3.5,0.2,6.8-1.1,10.4-1.2c5.8-0.2,11.6,1,16.8,3.4c1.2,0.4,2.5,0.7,3.8,0.8l-0.1-0.1c0,1.7,0.6,2.5,2.3,1.4l0.3,0.3
	c-1.3,2.9,0.9,2.3,2.4,2.4c0.3,0.3,0.6,0.6,0.9,0.9c-0.1,1.6-0.3,3.2,2.1,3.1c0.6,0.6,1.3,1.2,1.9,1.9c1,3.1,2,6.1,2.8,9.2
	c0.9,3.4,2.2,6.7,2.4,10.2c0.3,5.5-0.1,11.1-0.3,16.6c-0.1,1.3-0.3,2.6-0.6,3.9c-0.8,4.5-1.5,9-2.3,13.5l0,0
	c-2.9,0.1-1.3,1.2-0.5,2.1l-0.2,0.4c-1,0.2-2,0.4-3,0.6c0.5,0.6,1,1.2,1.5,1.8c-2.7,3-5.3,6-8,9c-1.3-0.1-2.6,0-3.9,0.2
	c-1.7,0.4-2.4,1.6-1.3,3.3c-0.2,0.2-0.4,0.3-0.7,0.4c-1-0.3-2.2-1.2-2.9-0.9c-5.6,2.7-11.5,2.1-17.3,2c-2.5-0.1-4.9-0.6-7.3-1.5
	c-3.7-1.3-7.2-2.9-10.8-4.4l0,0c0.5-2.4-0.5-3.4-2.9-3.1l0,0c-0.2-0.6-0.4-1.1-0.7-1.7c0-0.1-0.5,0.1-0.8,0.2c0.2,0.5,0.4,1,0.6,1.5
	c-0.1,1.7-0.1,3.3-0.2,5c-1,2-2.2,3.2-4.8,3.1c-4.3-0.3-8.6-0.2-13,0c-3,0.1-4.2-1.2-4.1-4.2c0.1-3.3,0-6.7,0-10
	c0.2-21.9,0.6-43.8,0.6-65.7c0-10.6-0.4-21.2-0.6-31.8c0-1.6,0.2-3.2,0.2-4.9h20.1c0.6,2.2,1.1,3.9,1.5,5.6c0,1.3,0,2.7,0,4
	c-0.3,0.6-0.8,1.1-0.8,1.7c-0.1,8.5-0.1,17.1,0,25.6c0,0.6,0.5,1.1,0.8,1.7c0.3,0.7,0.6,1.3,0.9,2c2.6-0.2,4-1.5,4.1-4.1
	c0.3-0.3,0.6-0.6,0.9-0.8C709.2,89.7,709.6,89.4,710,89.1z M704,116c0-0.1-0.1-0.3-0.2-0.4c-0.1-0.1-0.2-0.1-0.3-0.1L704,116
	c0,1,0,2,0.1,3c-0.2,1-0.3,2-0.5,3c-0.8,0.4-2.3,0.7-2.4,1.2c-0.9,5.8-2.3,11.7-0.1,17.5c0.4,1,1.8,1.5,2.8,2.3
	c0.7,1.3,1.4,2.6,2.1,3.9c0.3,2.6,0.3,5.5,4.4,4.2c0.1,0.1,0.3,0.3,0.4,0.4c0.3,0.9,0.2,2.2,0.8,2.6c3.2,2.1,7.1,3,10.8,2.4
	c2.5-0.4,5.7,2.1,7.5-1.6c0,0.1,0.1,0.3,0.2,0.4c0.1,0.1,0.2,0.1,0.3,0.1L730,155c0-0.4,0-0.7,0-1.1c0.6-0.3,1.3-0.6,1.9-0.9
	c1.5,0,3.2,0.2,3-2.1c0.6-0.6,1.3-1.3,1.9-1.9c3.6,0.5,3.2-1.9,3.1-4.1c0.3-0.6,0.6-1.2,0.9-1.9l1.2,0.1c0,0.1,0.1,0.3,0.2,0.4
	c0.1,0.1,0.2,0.1,0.3,0.1L742,143c0.9-2.1,1.8-4.2,2.8-6.5c-0.7-0.2-1.4-0.4-2-0.6l0.2-4c0.6-0.6,1.8-1.3,1.8-1.8
	c-0.3-5.3-0.3-10.7-3.5-15.3c-0.8-0.7-1.6-1.4-2.6-1.8c-1.6-1.6-3.2-3.3-4.9-4.9c-1.3-3.3-3.1-4.1-7-3.1c-0.7-0.1-1.3-0.2-2-0.2
	c-0.3-0.5-0.6-1.6-0.9-1.6c-2.5-0.1-6.1-0.9-7.3,0.3c-1.3,1.4-5.7-0.2-4.2,3.8l-0.3,0.2c-1.7-1-2.3-0.2-2.3,1.5l-1.8,1.9
	c-1.9,0-2.7,0.7-1.7,2.6c-0.2,0.2-0.6,0.1-0.7-0.1c0-0.1-0.1-0.1-0.1-0.2l-0.9,0.2l0.8,0.1c-0.1,0.8-0.3,1.5-0.4,2.3L704,116z"/>
<path class="st1" d="M311.2,134.9l0.8,1c0,1.6-0.2,3.2,2.2,3c1,1,1.9,1.9,2.9,2.9c-0.1,2.9,1.7,3.3,4,3.2l0,0
	c-0.1,2.3,1.6,2.1,3.1,2l0,0c1,1.3,1.9,3.6,3.2,3.9c7.9,1.9,15.9,3.8,24.1,3.2c1.2,0,2.3-0.2,3.4-0.4c6-2.1,12-4.1,17.8-6.4
	c4.2-1.7,5.3-1.2,5.4,3.5c0.1,3.7,0,7.3,0,11c0,2.8-0.4,5.2-4,5.7c-2.5,0.3-4.9,1.7-7.4,2.4c-4.3,1.1-8.8,3.4-12.9,2.8
	c-8.4-1.2-16.9,1.2-25.2-1.2c-3.4-1-6.7-2.1-10-3c-2.8-0.8-5.7-1.4-8.6-2.1l0,0.1c-0.8-3.2-3-4.2-6-4.1l0,0c0.2-2.2-1.3-2.1-2.8-2.2
	c-1.4-1.3-2.8-2.6-4.1-3.9c0.1-2.9-0.9-4.8-4.1-5l0,0c0.1-1.5,0.3-3.2-2.1-3l0,0.1c0-2.8,0.7-6-3.7-6.2c-0.2-0.2-0.3-0.5-0.2-0.8
	c0.1-1.1,0.7-2.4,0.3-3.3c-3.5-7.3-4.5-15.1-4.2-23.1c0.1-3.1-1-6.3-0.5-9.3c1-5.2,3-10.1,4.5-15.2c0.4-1.4,2.1-3-0.1-4.4
	c0.3-0.7,0.7-1.3,1-2c3.6-0.1,3.1-2.7,3.1-5.1l0,0c2.3,0.1,2.1-1.5,2.1-3c0.3-0.4,0.6-0.7,1-1.1c0.5,0.3,1,0.6,1.5,0.8
	c2.5-3.3,5-6.6,7.5-9.9c0.3-0.3,0.6-0.6,0.9-0.8c1.9-0.8,4.1-1.2,5.8-2.3c5.6-3.9,12-5.8,18.3-7.5c10.3-2.8,20.9-0.9,31.3-0.3
	c6.3,0.4,10.8,4.9,16.4,6.9c1.2,0.4,1.9,4.1,1.7,6.1c-0.4,4.5-1.5,8.9-2.6,14.3h-4.9l0,0c-0.8-1-1.5-2.5-2.5-3
	c-6.3-2.9-12.5-5.3-19.9-5.6c-6.7-0.4-13.4,0.3-19.9,2.2c-1.6,0.5-5,0.6-4.5,4.1c-0.7,0.4-1.3,0.8-2,1.3c-1.5,0-3.2-0.2-3,2.2
	c-1.3,1.3-2.6,2.6-3.9,3.9c-2.1,0.2-3.6,0.8-2.4,3.3l-0.3,0.4c-4.1-1.2-1.8,2.1-2.4,3.4c-0.4,0.9-0.8,1.9-1.2,2.8
	c-1.1,1.7-2.9,3.3-3.3,5.1c-1.3,5.6-1.6,11.3-1,17c0.8,5.9,3.3,10.8,6.2,15.6C310,135,310.7,134.9,311.2,134.9z"/>
<path class="st1" d="M406.1,162c-1.1-1.2-2.1-2.3-3.2-3.5c-0.7-0.8-1.3-1.6-2-2.5l0,0c-0.1-2.8-0.4-5.4-3.8-6.1
	c-0.4-0.9-0.7-1.8-1.1-2.7c0.4-0.2,1.2-0.5,1.2-0.7c-0.6-3-1.5-5.9-1.8-8.9c-0.5-5.4-1.5-11-0.5-16.1c1.2-5.9,2.5-12.2,6.9-17.1
	c0.9-1.1,0.8-3,1.2-4.6c1.7-1.6,3.3-3.3,5-4.9c1.6,0,3.2,0.1,3-2.2c0.3-0.3,0.7-0.5,1-0.8c2.3-0.8,4.7-1.5,6.9-2.4
	c8.7-3.5,17.5-5.9,27-3.8c0.9,0.2,2.1-0.4,3.1-0.7c1.3,0.3,2.7,0.7,4,1l2.1,0.9c0.6,0.1,1.2,0.1,1.8,0.2c1.2,2.6,3,4,6,3
	c1.3,0.9,2.7,1.8,4,2.7c0,2.7,1.6,3.3,3.9,3.3l1.1,1.1c0.5,0.5,1,1,1.5,1.5l-0.3,0.3l0.3-0.3c-0.7,2.4,0.5,3.3,2.7,3.3l0-0.1
	c-0.1,1.6-0.4,3.2,2.1,3l-0.1-0.1c1.3,4.2,2.8,8.3,3.7,12.5c1,4.6,2.1,9.3,1.8,13.8c-0.3,5.1-2.2,10.2-3.3,15.3
	c-0.1,0.4,0.5,1,0.8,1.6c-0.7,1.3-1.3,2.7-2,4c-2.3,0-2.2,1.6-2,3.1l0.1-0.1c-2.4-0.2-2.1,1.5-2.1,3c-2.4,2.3-4.7,4.6-7.1,6.9
	c-1.5,0-3-0.1-2.9,2.1l0,0c-1.3,0.3-2.6,0.5-3.8,0.8c-4.2,1.3-8.4,3.8-12.6,3.8c-8.1,0.1-16.4,2.2-24.3-1.4
	c-2.5-1.1-5.1-2.1-7.7-2.9c-1.9-0.6-3.8-1-5.7-1.4c-0.3-0.3-0.7-0.5-1-0.8C410.1,162.4,408.3,161.9,406.1,162z M457.9,115.1
	L457.9,115.1c0.1-1.5,0.3-3.2-2.1-3c-1-1-1.9-1.9-2.9-2.9c0.1-2.5-1.6-2.2-3.2-2.1c-0.9-0.4-1.8-0.8-2.7-1.2c-0.1-0.3,0-0.8-0.2-0.9
	c-4.7-3.1-9.8-1.6-14.8-1.2c-0.4,0-0.6,1.4-0.9,2.1c-3.3,2.4-6.6,4.8-9.8,7.2c-2.4-0.1-2.2,1.6-2.1,3.2L418,119
	c-4.3,1.3-3.2,5.4-3.8,8.2c-1.4,6.9,2.3,12.7,5.1,18.7c0.3,0.7,1.9,0.7,2.9,1c1.6,1.3,3.2,2.7,4.9,4c0.8,1.1,1.4,2.7,2.5,3.2
	c5.3,2.5,11.3,2.7,16.7,0.7c2.3-0.8,5.8-1.1,5.7-5c2-2.3,4-4.6,6-6.9c0.9-0.8,2.4-1.5,2.6-2.4c1.1-4.2,1.9-8.6,2.2-12.9
	c0.1-2.2,0.4-5.3-2.7-6.6c-0.4-1.3-0.8-2.7-1.2-4C460.8,115.2,459.2,115.2,457.9,115.1L457.9,115.1z"/>
<path class="st1" d="M897,95c1,1,2,2,3,3.1c0,2.1-0.2,4.4,3.1,3.9l0,0c0.5,1.7,0.9,3.4,1.5,5.1c0.8,2.2,2,4.2,2.4,6.4
	c1.1,5.7,2.9,11.1,2.3,17.2c-0.6,6.6-1.1,13.1-3.7,19.2c-0.3,1.1-0.5,2.2-0.5,3.4c-0.3,0.6-0.7,1.2-1,1.8c-2.2-0.1-2,1.5-2.1,3l0,0
	c-5,1-7.9,4.8-10.9,8.3c-0.3,0.3-0.1,1-0.1,1.5c-0.2,0.3-0.5,0.4-0.8,0.3c-1.3,0.2-2.6,0.4-3.8,0.7c-3.2,0.8-6.4,2-9.6,2.9
	c-3.4,0.9-6.4-0.1-9.5,0.2c-7.6,0.7-15,0.5-21.7-4c-1.1-0.8-2.6-1.2-2.9,1c-0.4-0.6-0.8-1.1-1.3-1.7l0.8-0.4
	c-0.3,0.1-0.6,0.2-0.9,0.4l-2.4-0.9c0.2-2.4-1.4-2.2-3-2.2c-2-2-3.9-4-5.9-6c0-1.5,0.2-3.1-2.1-3l0,0c0-0.8,0-1.7-0.2-2.5
	c-2.2-6.8-5-13.3-4.9-20.7c0.1-8.5-0.1-16.9,4.1-24.7c0.5-1.4,0.9-2.8,1.1-4.2l0,0c2.2,0.1,2-1.5,2.1-2.9c2-2,3.9-4,5.9-6.1
	c1.5,0,3.2,0.2,3-2.1l-0.1,0.1c1.5,0.1,3.2,0.4,3.1-2c0.7-0.4,1.3-0.7,2-1.1c0.8,0.2,1.9,0.7,2.4,0.4c7.2-4.5,15.5-2.8,23.3-4.2
	c0.8,0,1.6,0.1,2.4,0.5c4.2,1.2,8.4,2.4,12.6,3.5c2.2,0.6,4.4,1.2,6.5,1.8l-0.1-0.1c-0.2,2.4,1.5,2.2,3,2.1l-0.1-0.1
	C893.9,95.1,895.5,95,897,95z M876.9,107.1L876.9,107.1c0-0.4,0.1-1.2-0.2-1.4c-4.3-3.2-16.3-3.7-20.8-0.9c-0.5,0.3-0.6,1.5-0.8,2.2
	c-2.4,2.3-4.8,4.6-7.2,6.9c-0.8,0.2-1.7,0.5-2.5,0.7c0.3,0.5,0.6,0.9,0.8,1.4l-0.3,1.9c-0.6,0.4-1.5,0.7-1.8,1.3
	c-4,8.5-2.2,16.7,2,24.6c0.3,0.6,1.3,0.7,2,1.1l0,0c0.7,4.4,1.7,5.4,6.1,6l-0.1,0c0.3,0.7,0.5,1.7,1,2.1c5.5,3.3,11.5,2.7,17.5,2.2
	c2.5-0.2,4.7-1.4,5.4-4.3c1.3-1,2.5-2,3.8-3c1.2-0.9,2.9-1.5,3.5-2.7c1.7-2.8,2.9-5.9,3.6-9.1c0.7-4,0.4-8.2,0.4-12.4
	c0-0.6-1.3-1.1-2.1-1.7c-0.1-0.7-0.2-1.3-0.2-2c1.8-1.5,0.6-1.8-0.8-2l-1.2-2.7c0.1-1.6,0.4-3.3-2.1-3.2c-1.6-1.4-3.2-2.8-4.8-4.1
	C877.6,107.7,877.3,107.4,876.9,107.1L876.9,107.1z"/>
<path class="st1" d="M632,167.7c-0.1,0.3-0.4,0.5-0.8,0.4c-1.6,0.2-4-1.1-4.2,2.1l0.1-0.1c-2.6,0.6-5.2,1.3-7.8,1.9
	c-3.4,0.7-6.9,1.3-10.3,1.9c-0.7,0-1.3,0-2,0c-0.4-0.6-0.7-1.7-1.2-1.9c-4.3-1.4-8.6-2.7-12.9-4c-1.3-1.3-2.6-2.6-4-3.8
	c0.1-1.6,0.3-3.2-2.1-3.1c-0.3-0.7-0.6-1.3-0.9-2c-0.1-2.4-0.3-4.8-0.2-7.2c0-5.2,0.1-10.3,0.2-15.5l0.1-0.4c0.3-0.3,0.6-0.6,0.9-1
	c2.9-0.3,1.8-2.6,2-4.2c2.7-2.2,5.4-4.4,8.1-6.6l0.9-0.3c1-0.4,2-0.7,3-1.1c1.7,1.6,4.3,1.7,6.1,0.1l0-1.8c0.7,0,1.3,0,2-0.1l1,0.9
	c5,0.3,9.9,0.7,14.9,0.9c1.3,0,2.7-0.6,4.1-0.9c2,0.3,4,0.7,6,1c1,0,2,0,3,0c0.2-3.4,0.5-6.8,0.6-10.2c0-0.3-1-0.6-1.5-0.8
	c-0.4-0.6-0.8-1.2-1.1-1.9c0.4-2.4-0.8-3.6-2.8-4.6c-8.4-4.6-17.2-3.9-26-2c-5.1,1.1-10,3-15,4.5c0-2,0-4,0-6
	c0.6-0.8,1.7-1.6,1.8-2.4c0.2-2.9,0.1-5.9,0.1-9.1c2.3-0.8,4.7-2.1,7.3-2.5c7.6-1.2,15-2.6,22.9-2.4c7.6,0.2,14.6,1.2,21.2,5.1
	c1.1,0.6,2.7,0.4,4.1,0.6l0.2,0.1c-1,3.5,1.3,3.4,3.6,3.4c0.6,1,1.2,1.9,1.9,2.9c0.2,1,0.5,1.9,0.8,2.8c2.7,6.6,4.6,13.4,4.1,20.6
	c-0.3,5.8-0.9,11.6-0.8,17.3c0.1,8.9,0.5,17.9,0.8,26.8c0,1.4-0.1,2.8-0.3,4.2h-17.8c-1.8-1.9,0.7-5-2.7-5.7
	c-0.3-1.3-0.4-3.1-2.3-1.2c-1.1,1-2,2.2-3,3.2C633.2,166.6,632.6,167.1,632,167.7z M637.9,137.1L637.9,137.1c0-2.9-2.7-2.5-4.3-2.9
	c-4.1-1.1-8.3-1.7-12.6-1.9c-3.2,0-7.2-0.4-8.9,3.8c-1.4,1.6-2.8,3.3-4.2,4.9c-4,3.3-3.9,8.1,0.2,11c1,1,2,1.9,3,2.9
	c0.1,0.5,0.1,1.3,0.3,1.4c3.4,1,6.9,2.4,10.3,2.4c1.5,0,5.3,0.2,5.4-3.5c0.9-0.4,1.9-0.8,2.8-1.2c1.6,0.1,3.3,0.3,3.1-2.2
	c1.4-1.9,2.8-3.9,4.3-5.8c3.1-1.9,3-4.9,2.6-7.9C639.7,137.7,638.6,137.4,637.9,137.1L637.9,137.1z"/>
<path class="st1" d="M782.2,147c0-2.3,0-4.7,0-7c0-1.3,0-2.6,0-4c0-1.3,0-2.7,0-4c0-4,0-8,0-12l0-5l0-10c0-4,0-8,0-12
	c0.5-1.5,1-3,1.5-4.6h19.1V170h-20.6c0-1.7,0-3.4,0-5C782.2,159,782.2,153,782.2,147z"/>
<path class="st2" d="M568.7,172.7h-23.6V52.2h23.6V172.7z M566,169.7V54.4h-19.5v115.3H566z"/>
<path class="st3" d="M523.8,172.7h-23.5V52.2h23.5V172.7z M521.7,54.3h-19.4v115.5h19.4V54.3z"/>
<path class="st1" d="M804.2,53.9c0.6,1,1.3,2,1.9,3c-0.3,0.6-0.9,1.1-0.9,1.7c-0.1,1.8,0.3,3.6,0.1,5.4c-0.3,2-0.7,4-1.3,5.9
	c-0.3,0.3-0.6,0.7-1,1c-5.5,2-11.5,2.4-17.2,1c-1-1-1.9-1.9-2.9-2.9c0-5.1,0-10.2,0-15.3c0.6-0.6,1.3-1.3,1.9-1.9
	c2.2,0,4.4,0,5.1-2.8c0.7,0,1.3-0.1,2-0.1C796.1,50.7,800.2,52.3,804.2,53.9z"/>
<path class="st4" d="M782.2,170h20.6V88.4h-19.1c-0.5,1.5-1,3-1.5,4.6v-6.7h23.1v86.3h-23.1V170z"/>
<path class="st4" d="M702.9,60c-0.5-1.7-0.9-3.4-1.5-5.6h-20.1c-0.1,1.7-0.3,3.3-0.2,4.9c0.2,10.6,0.7,21.2,0.6,31.8
	c-0.1,21.9-0.4,43.8-0.6,65.7c0,3.3,0.1,6.7,0,10c-0.1,3,1.1,4.2,4.1,4.2c4.3-0.1,8.7-0.2,13,0c2.6,0.2,3.9-1,4.8-3.1v4.6h-22.8
	V52.1h22.8C702.9,54.8,702.9,57.4,702.9,60z"/>
<path class="st5" d="M309.9,166.1c2.9,0.7,5.7,1.3,8.6,2.1c3.4,0.9,6.7,2.1,10,3c8.3,2.4,16.8-0.1,25.2,1.2
	c4.1,0.6,8.6-1.7,12.9-2.8c2.5-0.7,4.9-2.1,7.4-2.4c3.7-0.5,4-2.8,4-5.7c0-3.7,0.1-7.3,0-11c-0.1-4.7-1.1-5.2-5.4-3.5
	c-5.9,2.3-11.9,4.4-17.8,6.4c-1.1,0.3-2.3,0.4-3.4,0.4c-8.3,0.6-16.2-1.4-24.1-3.2c-1.3-0.3-2.1-2.5-3.2-3.9c19.3,9.2,37.5,5,55.6-5
	v24.7c-13.5,7.2-28.1,9.4-43.4,8C326.9,173.7,317.8,171.7,309.9,166.1z"/>
<path class="st6" d="M191,1.2c-1.5,0.4-3.1,0.7-4.7,0.8c-7.8-0.2-15.5-0.9-23.3-0.8c-10.3,0-20.7,0.7-31,0.8
	c-9.1,0.2-18.1,0.1-27.2,0c-5.4-0.1-10.9-0.9-16.3-0.9c-6.2,0-12.4,0.7-18.6,0.8c-3.1,0.1-6.2-0.5-9.4-0.6c-2.6-0.1-5.3-0.1-7.9,0
	c-5.9,0.4-11.8,1-17.7,1.5c3.9-0.9,7.8-2.7,11.8-2.7c44.9-0.2,89.8-0.2,134.7-0.1C184.5,0.1,187.8,0.8,191,1.2z"/>
<path class="st5" d="M369.9,82.1h4.9c1-5.4,2.2-9.8,2.6-14.3c0.2-2-0.5-5.7-1.7-6.1c-5.6-2-10-6.5-16.4-6.9
	c-10.5-0.7-21-2.5-31.3,0.3c-6.3,1.7-12.8,3.6-18.3,7.5c-1.7,1.2-3.8,1.6-5.8,2.3c11.6-9.9,25.4-13.5,40.4-13.4
	c10.9,0.1,21.3,2,31,7.3c1.7,0.9,3.3,2.1,4.8,3.1c-1.3,8.3-2.5,16.3-3.8,24.9C373.7,85,371.8,83.5,369.9,82.1z"/>
<path class="st5" d="M639.1,164c3.4,0.6,1,3.8,2.7,5.7h17.8c0.2-1.4,0.3-2.8,0.3-4.2c-0.2-8.9-0.7-17.9-0.8-26.8
	c0-5.8,0.5-11.6,0.8-17.3c0.4-7.2-1.4-14-4.1-20.6c-0.3-0.9-0.6-1.9-0.8-2.8c4.3,3.5,5.7,8.8,5.8,13.7c0.4,20.3,0.2,40.6,0.2,61.1
	h-21.6C639.3,169.8,639.2,166.9,639.1,164z"/>
<path class="st7" d="M225.1,184.2c0.7-3.7,1.4-7.4,2-11.1c0.5-2.4,0.8-4.9,0.8-7.3c0.1-39.5,0.1-78.9,0.1-118.4
	c0.1-1.8,0.4-3.5,0.8-5.2c0.1,7.8,0.3,15.7,0.3,23.5c0,32.8,0,65.7,0,98.5C229.2,171,228.9,177.9,225.1,184.2z"/>
<path class="st6" d="M2,37.5C1.6,54.4,1.2,71.3,1.1,88.3c-0.2,21.1-0.2,42.3,0,63.4c0,7.8,0.6,15.6,1,23.3c-0.3,0-0.6,0-0.8,0
	c-0.4-3.3-1.1-6.5-1.1-9.8C0,126.3,0,87.4,0.1,48.4C0.1,44.8,1.3,41.1,2,37.5z"/>
<path class="st8" d="M649.4,91.4c-1.4-0.2-3,0-4.1-0.6c-6.6-3.9-13.6-4.8-21.2-5.1c-7.9-0.3-15.3,1.2-22.9,2.4
	c-2.6,0.4-5,1.7-7.3,2.5c0,3.2,0.1,6.2-0.1,9.1c-0.1,0.8-1.2,1.6-1.8,2.4c0-2.2-0.1-4.3-0.1-6.5c0-6.1,0-6.2,5.5-8
	c13.5-4.5,27.2-5.4,41-1.4C642.3,87.2,645.8,89.6,649.4,91.4z"/>
<path class="st9" d="M761.1,153.2c0.8-4.5,1.5-9,2.3-13.5c0.3-1.3,0.5-2.6,0.6-3.9c0.2-5.5,0.6-11.1,0.3-16.6
	c-0.2-3.4-1.5-6.8-2.4-10.2c-0.9-3.1-1.9-6.1-2.8-9.2c7.4,10.5,8.8,22.4,7.6,34.8c-0.6,4.6-1.5,9.1-2.8,13.5
	C763.4,149.9,762.1,151.5,761.1,153.2z"/>
<path class="st5" d="M411,166c1.9,0.5,3.9,0.8,5.7,1.4c2.6,0.8,5.2,1.8,7.7,2.9c7.9,3.6,16.2,1.5,24.3,1.4c4.2-0.1,8.4-2.5,12.6-3.8
	c1.2-0.4,2.5-0.6,3.8-0.8C450.4,178.1,425.1,177.3,411,166z"/>
<path class="st9" d="M286.9,86c2.2,1.4,0.5,3,0.1,4.4c-1.5,5.1-3.5,10.1-4.5,15.2c-0.6,2.9,0.5,6.2,0.5,9.3
	c-0.2,8,0.7,15.7,4.2,23.1c0.4,0.9-0.1,2.2-0.3,3.3c-2-5.6-4.8-11.1-5.7-16.9c-1.9-12.7-0.9-25.3,4.8-37.2
	C286.3,86.7,286.6,86.3,286.9,86z"/>
<path class="st5" d="M828,102.9c-0.2,1.5-0.5,2.9-1.1,4.2c-4.2,7.8-3.9,16.2-4.1,24.7c-0.1,7.5,2.8,14,4.9,20.7
	c0.2,0.8,0.2,1.6,0.2,2.5C817.8,141.8,817.1,116.9,828,102.9z"/>
<path class="st5" d="M403,99.9c-0.4,1.6-0.2,3.5-1.2,4.6c-4.3,4.9-5.7,11.2-6.9,17.1c-1,5.1,0,10.7,0.5,16.1c0.3,3,1.2,5.9,1.8,8.9
	c0,0.1-0.8,0.4-1.2,0.7C389.8,130.3,391.1,114.3,403,99.9z"/>
<path class="st5" d="M842.7,168.9c0.3-2.2,1.8-1.7,2.9-1c6.7,4.5,14.2,4.7,21.7,4c3.1-0.3,6.1,0.6,9.5-0.2c3.2-0.8,6.4-2.1,9.6-2.9
	c1.3-0.3,2.5-0.5,3.8-0.7c-8.9,6-18.9,7.7-29.3,6.6C854.5,174,848.3,172.4,842.7,168.9z"/>
<path class="st8" d="M905.1,153.3c0-1.1,0.2-2.3,0.5-3.4c2.6-6.2,3.1-12.6,3.7-19.2c0.5-6.1-1.2-11.5-2.3-17.2
	c-0.4-2.2-1.7-4.3-2.4-6.4c-0.6-1.7-1-3.4-1.5-5.1c6.8,8.7,8.6,18.7,8.3,29.4C911.1,139.1,909.9,146.7,905.1,153.3z"/>
<path class="st5" d="M323,79.8c-0.5-3.5,2.9-3.6,4.5-4.1c6.5-1.8,13.2-2.6,19.9-2.2c7.4,0.3,13.6,2.7,19.9,5.6c1.1,0.5,1.7,2,2.5,3
	c-8-4.2-16.3-7-25.4-7.1C337.1,74.7,329.7,76.3,323,79.8z"/>
<path class="st9" d="M706.9,166.1c3.6,1.5,7.1,3.1,10.8,4.4c2.3,0.9,4.8,1.3,7.3,1.5c5.8,0.1,11.8,0.7,17.3-2
	c0.7-0.3,1.9,0.6,2.9,0.9c-8.9,4.6-18.2,5.6-27.6,2C713.7,171.4,710.4,168.4,706.9,166.1z"/>
<path class="st8" d="M891.2,90.9c-2.2-0.6-4.4-1.2-6.5-1.8c-4.2-1.2-8.4-2.4-12.6-3.5c-0.8-0.3-1.6-0.5-2.4-0.5
	c-7.8,1.4-16.1-0.3-23.3,4.2c-0.5,0.3-1.6-0.2-2.4-0.4c4.1-1.5,8.1-3.7,12.3-4.3C868.5,82.7,880.5,83.3,891.2,90.9z"/>
<path class="st8" d="M592.1,108c5-1.5,9.9-3.3,15-4.5c8.8-2,17.6-2.6,26,2c2,1.1,3.2,2.3,2.8,4.6c-3.8-4.4-8.8-5.9-14.4-6.2
	c-10.1-0.4-20.1,1.8-29.1,6.4C592.3,109.4,592.2,108.7,592.1,108z"/>
<path class="st2" d="M481.1,148.1c-0.3-0.5-0.9-1.1-0.8-1.6c1.1-5.1,3-10.1,3.3-15.3c0.3-4.6-0.8-9.3-1.8-13.8
	c-0.9-4.3-2.4-8.4-3.7-12.5c3.9,4.7,5.6,10.4,6.4,16.3C485.7,130.3,485.7,139.5,481.1,148.1z"/>
<path class="st8" d="M311.2,134.9c-0.5-0.1-1.3,0-1.4-0.2c-2.9-4.9-5.3-9.7-6.2-15.6c-0.7-5.7-0.3-11.4,1-17
	c0.4-1.8,2.2-3.4,3.3-5.1C303.1,110.2,304,122.8,311.2,134.9z"/>
<path class="st7" d="M116.8,212.3c1.3-0.4,2.7-1.2,4-1.2c21-0.1,42-0.1,63,0c1.1,0.1,2.2,0.4,3.2,0.8c-21.2,0.1-42.5,0.1-63.7,0.2
	C121.1,212,118.9,212.2,116.8,212.3z"/>
<path class="st2" d="M749.2,89.9c-1.3-0.1-2.6-0.4-3.8-0.8c-5.3-2.4-11-3.6-16.8-3.4c-3.6,0.1-6.9,1.3-10.4,1.2
	c-0.7-0.1-1.5-0.4-2.1-0.8C727.7,82,738.8,82.7,749.2,89.9z"/>
<path class="st4" d="M449,85.1c-1,0.2-2.2,0.9-3.1,0.7c-9.5-2.1-18.3,0.3-27,3.8c-2.3,0.9-4.6,1.6-6.9,2.4
	C423.2,83.6,435.7,82.2,449,85.1z"/>
<path class="st10" d="M60.7,212.3c3.3-0.2,3.2,2.3,3.3,4.4c0.1,4.1,0,8.3,0.1,12.4c0.1,4.4,0.4,8.8,0.6,13.2
	c-0.9-2.4-2.3-4.7-2.5-7.1c-0.4-5.7,0-11.5-0.2-17.3C62,216,61.2,214.2,60.7,212.3z"/>
<path class="st8" d="M637.1,112c0.5,0.3,1.6,0.6,1.5,0.8c-0.1,3.4-0.4,6.8-0.6,10.2c-1,0-2,0-3,0l-6-1c-6.3,0-12.7,0-19,0l-1-0.9
	c6.1-0.1,12.2-0.3,18.3-0.4c3.4-0.1,6.9,0,10.8,0C637.8,117.8,637.5,114.9,637.1,112z"/>
<path class="st2" d="M585.9,136.4c-0.1,5.2-0.2,10.3-0.2,15.5c0,2.4,0.2,4.8,0.2,7.2C582.5,151.9,582.5,143.6,585.9,136.4z"/>
<path class="st10" d="M28.9,208.2c0.7-0.2,1.5-0.9,2-0.7c8.5,2.9,17.3,3.5,26.1,3.5c1.3,0,2.6,0.8,3.9,1.2c-5-0.1-9.9-0.2-14.9-0.2
	C40.1,212.1,34.3,210.7,28.9,208.2z"/>
<path class="st2" d="M609,173.9c3.4-0.6,6.9-1.2,10.3-1.9c2.6-0.5,5.2-1.2,7.8-1.9C621.8,174.6,615.5,174.4,609,173.9z"/>
<path class="st8" d="M785.9,72.1c5.7,1.3,11.7,1,17.2-1C796.8,76.2,792.5,76.4,785.9,72.1z"/>
<path class="st2" d="M592.9,168c4.3,1.3,8.6,2.5,12.9,4c0.6,0.2,0.8,1.2,1.2,1.9C601.8,173.2,596.9,171.7,592.9,168z"/>
<path class="st5" d="M891,167.8c0-0.5-0.2-1.2,0.1-1.5c3.1-3.5,5.9-7.4,10.9-8.3C898.4,161.3,894.7,164.5,891,167.8z"/>
<path class="st8" d="M783,53.9c0,5.1,0,10.2,0,15.3C778.9,63.6,778.9,59.9,783,53.9z"/>
<path class="st4" d="M702.9,93c-0.3-0.6-0.8-1.1-0.8-1.7c-0.1-8.5-0.1-17.1,0-25.6c0-0.6,0.5-1.1,0.8-1.7
	C702.9,73.7,702.9,83.3,702.9,93z"/>
<path class="st5" d="M302.9,65.8c-2.5,3.3-5,6.6-7.5,9.9c-0.5-0.2-1-0.5-1.5-0.8C297,71.8,299.9,68.8,302.9,65.8z"/>
<path class="st8" d="M804,70c0.5-2,1-3.9,1.3-5.9c0.2-1.8-0.2-3.6-0.1-5.4c0-0.6,0.6-1.1,0.9-1.7C808.2,61.8,807.6,66.1,804,70z"/>
<path class="st8" d="M804.2,53.9c-4.1-1.6-8.1-3.2-12.2-4.9C797,48.5,801.2,49.8,804.2,53.9z"/>
<path class="st10" d="M1.2,175c0.3,0,0.6,0,0.8,0c1,4.1,4.8,7.4,3.9,12.1C4.4,183.1,2.8,179,1.2,175z"/>
<path class="st4" d="M782.2,147c0,6,0,12,0,18C782.2,159,782.2,153,782.2,147z"/>
<path class="st10" d="M65.7,243.4c3.1,0.6,6.3,1.2,9.4,1.8C71.5,247,68.4,246.4,65.7,243.4z"/>
<path class="st9" d="M745.8,170.5c-1.1-1.7-0.4-2.8,1.3-3.3c1.3-0.2,2.6-0.3,3.9-0.2C749.3,168.2,747.5,169.3,745.8,170.5z"/>
<path class="st9" d="M287.2,142c4.4,0.1,3.7,3.4,3.7,6.2L287.2,142z"/>
<path class="st5" d="M397.2,150c3.4,0.7,3.7,3.3,3.8,6.1C399.7,154.1,398.4,152,397.2,150z"/>
<path class="st4" d="M782.2,120c0,4,0,8,0,12C782.1,128,782.2,124,782.2,120z"/>
<path class="st4" d="M463,90.1c-3,1-4.8-0.4-6-3C459,88.1,461,89.1,463,90.1z"/>
<path class="st9" d="M303.9,162.1c3-0.2,5.3,0.9,6,4.1C307.9,164.8,305.9,163.5,303.9,162.1z"/>
<path class="st6" d="M31.8,3.7l-7,3.2L31.8,3.7z"/>
<path class="st9" d="M292.9,151.1c3.2,0.2,4.2,2.1,4.1,5C295.6,154.4,294.3,152.7,292.9,151.1z"/>
<path class="st4" d="M782.2,105l0,10L782.2,105z"/>
<path class="st4" d="M708,90.8c-0.1,2.6-1.5,4-4.1,4.1L708,90.8z"/>
<path class="st9" d="M291,78.9c0,2.3,0.6,4.9-3.1,5.1C288.9,82.3,289.9,80.6,291,78.9z"/>
<path class="st9" d="M607,123c-1.7,1.6-4.4,1.5-6.1-0.1l3.1-0.8L607,123z"/>
<path class="st8" d="M790,49.2c-0.7,2.8-2.9,2.8-5.1,2.8C786.6,51,788.3,50.1,790,49.2z"/>
<path class="st8" d="M653.2,94.9c-2.3,0-4.6,0.1-3.6-3.4C650.8,92.7,652,93.8,653.2,94.9z"/>
<path class="st8" d="M903.1,102c-3.3,0.5-3.1-1.7-3.1-3.9C901,99.4,902.1,100.7,903.1,102z"/>
<path class="st5" d="M406.1,162c2.2-0.1,4,0.4,3.9,3.2C408.7,164.1,407.4,163.1,406.1,162z"/>
<path class="st5" d="M321.1,145c-2.3,0.2-4.1-0.3-4-3.2C318.4,142.9,319.8,143.9,321.1,145z"/>
<path class="st9" d="M589,130.9c-0.2,1.6,0.9,3.9-2,4.2c-0.2,0-0.4,0-0.7,0C587.2,133.6,588.1,132.2,589,130.9z"/>
<path class="st2" d="M470.9,96c-2.3,0.1-3.9-0.6-3.9-3.3L470.9,96z"/>
<path class="st8" d="M309.1,94.2c0.6-1.3-1.7-4.6,2.4-3.4C310.7,91.9,309.9,93.1,309.1,94.2z"/>
<path class="st2" d="M476.2,101.9c-2.3,0-3.4-0.9-2.7-3.3C474.4,99.7,475.3,100.8,476.2,101.9z"/>
<path class="st8" d="M311.8,90.4c-1.2-2.6,0.3-3.2,2.4-3.3C313.4,88.2,312.6,89.3,311.8,90.4z"/>
<path class="st9" d="M759,158c-0.5-0.6-1-1.2-1.5-1.8c1-0.2,2-0.4,3-0.6C760,156.4,759.5,157.2,759,158z"/>
<path class="st10" d="M19.9,203.1c1.8,0,3.6-0.3,3.8,2.3C22.5,204.6,21.2,203.8,19.9,203.1z"/>
<path class="st7" d="M223.1,188.3c-0.1-1.8-0.2-3.6,2.1-4.2C224.5,185.5,223.8,186.9,223.1,188.3z"/>
<path class="st2" d="M627.1,170.1c0.2-3.2,2.5-1.9,4.2-2.1L627.1,170.1z"/>
<path class="st10" d="M75.3,245.4c0.1-2.7,2-2.4,3.8-2.3C77.9,243.9,76.6,244.6,75.3,245.4z"/>
<path class="st9" d="M704,163c2.4-0.3,3.4,0.7,2.9,3.1L704,163z"/>
<path class="st10" d="M8.6,191.4c2.1,0,2.5,1.1,2.1,2.9C10,193.3,9.3,192.4,8.6,191.4z"/>
<path class="st8" d="M897,95c-1.5-0.1-3.1,0.1-2.8-2.2L897,95z"/>
<path class="st4" d="M410.9,92.8c0.2,2.4-1.4,2.2-3,2.2C409,94.2,410,93.5,410.9,92.8z"/>
<path class="st9" d="M293,76c0,1.5,0.2,3.1-2.1,3C291.6,78,292.3,77,293,76z"/>
<path class="st8" d="M318.1,83.2c-0.2-2.3,1.5-2.2,3-2.2C320.1,81.7,319.1,82.5,318.1,83.2z"/>
<path class="st8" d="M842,89.9c0,2.3-1.6,2.1-3.1,2C839.9,91.2,841,90.6,842,89.9z"/>
<path class="st8" d="M894.2,92.9c-1.6,0.1-3.2,0.3-3-2.1C892.2,91.5,893.2,92.2,894.2,92.9z"/>
<path class="st2" d="M754.2,93.9c-1.5-0.1-3.7,0.5-2.4-2.4C752.6,92.3,753.4,93.1,754.2,93.9z"/>
<path class="st8" d="M838.9,91.9c0.2,2.4-1.5,2.1-3,2.1C836.9,93.3,837.9,92.6,838.9,91.9z"/>
<path class="st5" d="M314.2,138.9c-2.4,0.2-2.2-1.4-2.2-3C312.8,136.9,313.5,137.9,314.2,138.9z"/>
<path class="st5" d="M324.1,147c-1.5,0-3.1,0.3-3.1-2C322.1,145.6,323.1,146.3,324.1,147z"/>
<path class="st8" d="M607,123c-1-0.3-2-0.6-3-1c1-0.3,2-0.6,3-0.9L607,123z"/>
<path class="st9" d="M290.9,148.1c2.4-0.2,2.2,1.5,2.1,3C292.2,150.1,291.5,149.1,290.9,148.1z"/>
<path class="st2" d="M477.1,155.2c-0.2-1.6-0.4-3.2,2-3.1C478.5,153.1,477.8,154.1,477.1,155.2z"/>
<path class="st2" d="M475.1,158.1c0-1.5-0.3-3.2,2.1-3L475.1,158.1z"/>
<path class="st5" d="M827.9,155.1c2.3-0.1,2.1,1.5,2.1,3C829.3,157,828.6,156,827.9,155.1z"/>
<path class="st8" d="M902,158c0-1.5-0.2-3.1,2.1-3C903.4,156,902.7,157,902,158z"/>
<path class="st9" d="M301.1,160c1.5,0,3,0,2.8,2.2C303,161.4,302.1,160.7,301.1,160z"/>
<path class="st2" d="M586.9,161.1c2.4-0.1,2.2,1.6,2.1,3.1C588.3,163.2,587.6,162.1,586.9,161.1z"/>
<path class="st2" d="M478.2,104.9c-2.4,0.2-2.2-1.5-2.1-3C476.8,102.9,477.5,103.9,478.2,104.9z"/>
<path class="st5" d="M835.9,164c1.6,0,3.2-0.2,3,2.2C837.9,165.5,836.9,164.8,835.9,164z"/>
<path class="st5" d="M465.1,167.1c-0.1-2.2,1.4-2.1,2.9-2.1C467,165.7,466,166.4,465.1,167.1z"/>
<path class="st5" d="M830,100c0,1.4,0.2,3-2.1,2.9C828.6,102,829.3,101,830,100z"/>
<path class="st2" d="M757.2,98c-2.4,0.1-2.2-1.6-2.1-3.1C755.8,95.9,756.5,96.9,757.2,98z"/>
<path class="st10" d="M6.6,188.3c2,0.2,2.7,1.1,1.9,3C7.9,190.3,7.3,189.3,6.6,188.3z"/>
<path class="st5" d="M400.9,156.1c0.7,0.8,1.3,1.6,2,2.5C402.2,157.7,401.6,156.9,400.9,156.1z"/>
<path class="st4" d="M782.1,136c0,1.3,0,2.6,0,4C782.1,138.7,782.1,137.3,782.1,136z"/>
<path class="st2" d="M751.4,91.3c-1.7,1-2.3,0.3-2.3-1.4C749.9,90.3,750.7,90.8,751.4,91.3z"/>
<path class="st10" d="M80.1,242.2c-0.2-1.6,0.5-2.3,2.2-1.9C81.6,240.9,80.9,241.6,80.1,242.2z"/>
<path class="st9" d="M703.1,163c-0.2-0.5-0.4-1-0.6-1.5c0.3-0.1,0.8-0.2,0.8-0.2c0.3,0.5,0.5,1.1,0.7,1.7l-0.4-0.1L703.1,163z"/>
<path class="st10" d="M17.7,201.3c0.7,0.6,1.5,1.2,2.2,1.8C19.2,202.5,18.5,201.9,17.7,201.3z"/>
<path class="st10" d="M10.7,194.2c0.8,1,1.5,1.9,2.3,2.9C12.2,196.1,11.5,195.2,10.7,194.2z"/>
<path class="st6" d="M34.8,2.7c-1,0.4-2,0.8-3,1.1C32.9,3.4,33.9,3,34.8,2.7z"/>
<path class="st10" d="M82.2,240.3c0.6-0.4,1.2-0.8,1.8-1.3C83.5,239.5,82.9,239.9,82.2,240.3z"/>
<path class="st9" d="M760.7,155.2c-0.8-0.9-2.4-2,0.5-2.1C761,153.8,760.9,154.5,760.7,155.2z"/>
<path class="st2" d="M632,167.7c0.6-0.6,1.2-1.1,1.8-1.7C633.2,166.6,632.6,167.1,632,167.7z"/>
<path class="st10" d="M14.9,199l1.8,1.3L14.9,199z"/>
<path class="st10" d="M23.8,205.3l1.9,1.1L23.8,205.3z"/>
<path class="st4" d="M455.2,87l-2.1-0.9L455.2,87z"/>
<path class="st2" d="M473.5,98.6c-0.5-0.5-1-1-1.5-1.5C472.5,97.6,473,98.1,473.5,98.6z"/>
<path class="st10" d="M5.9,187.1l0.9,1.2L5.9,187.1z"/>
<path class="st7" d="M221.1,191.2c0.3-0.4,0.7-0.8,1-1.2C221.8,190.4,221.5,190.8,221.1,191.2z"/>
<path class="st4" d="M710,89.1c-0.4,0.3-0.8,0.6-1.2,0.9C709.2,89.7,709.6,89.4,710,89.1z"/>
<path class="st7" d="M220.9,192l0.4-0.8C221.3,191.5,221.2,191.8,220.9,192z"/>
<path class="st2" d="M586.3,135c0.2,0,0.4,0,0.7,0c-0.3,0.3-0.6,0.6-0.9,1C586.1,135.7,586.2,135.3,586.3,135z"/>
<path class="st4" d="M713,87.1c-0.4,0.3-0.8,0.5-1.2,0.8C712.2,87.7,712.6,87.4,713,87.1z"/>
<path class="st10" d="M16.7,200.3l1.1,1L16.7,200.3z"/>
<path class="st10" d="M25.8,206.3c0.4,0.3,0.8,0.6,1.2,1C26.6,206.9,26.2,206.6,25.8,206.3z"/>
<path class="st5" d="M841.4,167.2c0.3-0.1,0.6-0.2,0.9-0.4l-0.8,0.4L841.4,167.2z"/>
<path class="st6" d="M24.9,6.8l-0.8,0.3C24.3,6.9,24.6,6.8,24.9,6.8z"/>
<path class="st8" d="M598,124l-0.9,0.3L598,124z"/>
<path class="st10" d="M64.7,242.3c0.4,0.3,0.7,0.7,1.1,1C65.4,243,65.1,242.6,64.7,242.3z"/>
<path class="st10" d="M79.1,243.1l1.1-1.1L79.1,243.1z"/>
<path class="st11" d="M173,63.2c0.8,1.3,1.7,2.6,2.5,3.9c0.2,1.5,0.4,3,0.5,4.4c0,17.5,0,34.9,0,52.4c-1,0.1-2,0.1-3,0.2
	c-1,0-1.9,0-2.9,0c-1,0-2.1,0-3.1,0c-1.3,0-2.6,0-3.9,0c-5.3-0.1-10.6-0.2-15.9-0.1c-3.3,0-6.2,1-8,4.1c-0.2,0.2-0.3,0.6-0.3,0.9
	l0.1,0l-1.2,2.1c-0.2,0.7-0.4,1.4-0.6,2.1c-0.1,11-0.1,22-0.2,32.9l0-0.2c-21.1,0-42.3,0-63.4,0c-2.2,0-4.3-0.3-6.5-0.4
	c-1.5-1.5-2.9-2.9-4.4-4.4c-0.2-1.8-0.5-3.6-0.5-5.4c0-28,0-56,0-84.1c0-1.8,0.3-3.6,0.5-5.4l0.5-1.7c2.6-0.8,5.2-2.2,7.9-2.3
	c31.1-0.3,62.2-0.5,93.3-0.6C167.2,61.5,170.1,62.6,173,63.2z"/>
<path class="st12" d="M173,124.1c1-0.1,2-0.1,3-0.2l1.1,0c3.6,0,7.3,0,10.9,0.2c3.8,0.2,7.1,1.4,9,5l0.2,0.9l0,0
	c0,15.3,0,30.6,0,45.8c0.1,1.4,0.4,2.8,0.9,4.2c-1.4,3.8-3.8,6.4-8,7c-1-0.4-2.1-0.7-3.2-0.9c-12.8-0.1-25.6-0.1-38.5,0
	c-1.1,0.1-2.2,0.4-3.2,0.8c-5.9-2.1-8-4.9-8.1-10.9c-0.1-3-0.1-6-0.2-9l0.1-1.2l0,0.2c0.5-1.1,0.9-2.3,1-3.6
	c0.1-8.7,0.1-17.5,0-26.2c-0.1-1.1-0.4-2.1-0.9-3.1c0.2-0.7,0.4-1.4,0.6-2.1c0.4-0.7,0.8-1.4,1.2-2.1l-0.1,0l0.3-0.9
	c1.8-3.1,4.7-4,8-4.1c5.3-0.1,10.6,0.1,15.9,0.1c1.3,0,2.6,0,3.9,0c1,0,2.1,0,3.1,0C171,124.1,172,124.1,173,124.1z M150,159.8
	c0.9,0.5,1.9,0.9,3,1.1c3.3,0.1,6.6,0,9.9,0v11.8c3.2-0.2,5.5-0.3,8.2-0.5v-11.1c4.6-0.4,8.7-0.8,12.7-1.1v-9.2h-12.9v-12.5h-8.1
	v10.7l-1.8,1.9l-9.1,0c-0.6,0.1-1.3,0.1-1.9,0.2C150,154,150,156.9,150,159.8z"/>
<path class="st13" d="M52.8,135.9c-0.3,0-0.6,0-0.8,0.2l-8.9-1.6c-1.6-1.8-3.2-3.6-4.9-5.4c-0.1-2-0.3-4-0.3-6c0-25,0-50.1,0-75.1
	c0.2-0.1,0.3-0.3,0.2-0.5c0,0,0,0,0-0.1c0.3-0.8,0.7-1.6,1-2.4l-0.1,0.1c0.3-0.4,0.6-0.7,0.9-1.1c0.3-0.1,0.5-0.5,0.4-0.8l-0.2,0.1
	l1.1-1.1l-0.1,0.1l2-1.2l-0.1,0l1.2-0.9l-0.1,0.1c2.5-0.2,5-0.7,7.4-0.7c30.5-0.3,61-0.6,91.4-0.8c6.6,1.9,8,7,8,13
	c-1.3,0.1-2.6,0.3-3.9,0.3c-27.3,0.3-54.5,0.6-81.8,0.9c-2.1,0-4.1,0.8-6.2,1.3c-0.7,0.5-1.5,1.1-2.2,1.6L56,56.8l-1.2,2.1l0.1-0.1
	c-0.6,2.3-1.7,4.6-1.7,6.9C52.9,73.9,53.1,82,53,90.2C53,105.4,52.9,120.7,52.8,135.9z"/>
<path class="st10" d="M173,63.2c-2.9-0.6-5.8-1.6-8.7-1.6c-31.1,0.1-62.2,0.3-93.3,0.6c-2.6,0-5.3,1.5-7.9,2.3
	C62.9,61.2,65,61,67.4,61c7.2,0,14.3,0.1,21.5,0c15.4-0.3,30.9-0.6,46.3-1c7-0.2,14-0.7,21-0.9c3.2-0.1,6.5-0.1,9.8,0
	C168.9,59.2,171.9,59.7,173,63.2z"/>
<path class="st14" d="M38,48c0,25,0,50.1,0,75.1c0,2,0.2,4,0.3,6c-2.2-0.8-2.3-2.6-2.2-4.5c0-24.2,0-48.3,0.1-72.5
	C36.1,50.8,37.3,49.4,38,48z"/>
<path class="st14" d="M52.8,135.9c0.1-15.3,0.1-30.5,0.2-45.8c0-8.1-0.1-16.3,0.1-24.4c0.1-2.3,1.1-4.6,1.7-6.9
	c0.1,24.7,0.1,49.4,0.2,74.1C55,134.5,55,136,52.8,135.9z"/>
<path class="st7" d="M143,38.8c-30.5,0.3-61,0.5-91.4,0.8c-2.5,0-5,0.4-7.4,0.7c1.6-2.7,4.2-2.2,6.6-2.2c21.8,0,43.6,0.1,65.4-0.1
	c7.6,0,15.2-0.7,22.8-0.9C140.5,37,142.5,36.2,143,38.8z"/>
<path class="st7" d="M59,54.3c2.1-0.4,4.1-1.2,6.2-1.3c27.3-0.4,54.5-0.6,81.8-0.9c1.3,0,2.6-0.2,3.9-0.3c-0.5,0.7-0.9,1.9-1.6,2.1
	c-1.3,0.2-2.6,0.3-3.9,0.2c-23.1,0-46.1,0-69.2,0.1c-5.8,0-11.5,0.6-17.3,0.9C59,54.7,59,54.5,59,54.3z"/>
<path class="st15" d="M197.9,179.9c-0.4-1.4-0.7-2.8-0.9-4.2c0-15.3,0-30.6,0-45.8c0.5,0.4,0.9,0.8,1.4,1.1c0.1,2,0.4,3.9,0.4,5.9
	c0,11.7,0.1,23.5,0,35.2c0,2.6-0.4,5.2-0.7,7.8L197.9,179.9z"/>
<path class="st16" d="M62.6,66.1c-0.2,1.8-0.5,3.6-0.5,5.4c0,28,0,56,0,84.1c0,1.8,0.3,3.6,0.5,5.4c-2.6-0.8-1.6-3-1.6-4.6
	c-0.1-14.3,0-28.5,0-42.8S61,85,61.1,70.7C61.1,69.2,62.1,67.6,62.6,66.1z"/>
<path class="st16" d="M136.9,165.8l-0.1,1.2c-21.5,0-43.1,0-64.6-0.1c-1.7,0-4.1,1.2-5.1-1.6c2.2,0.2,4.3,0.4,6.5,0.4
	C94.6,165.9,115.8,165.9,136.9,165.8z"/>
<path class="st16" d="M177,123.9c-0.4,0-0.7,0-1.1,0c0-17.5,0-34.9,0-52.4c-0.1-1.5-0.2-3-0.5-4.4c0.5,1.6,1.5,3.1,1.5,4.7
	C177.1,89.1,177,106.5,177,123.9z"/>
<path class="st14" d="M198.2,180c0.2-2.6,0.6-5.2,0.7-7.8c0.1-11.7,0.1-23.5,0-35.2c0-2-0.3-3.9-0.4-5.9c0.5,0.9,1.5,1.8,1.5,2.7
	c0.1,14.4,0.1,28.9,0,43.3C199.9,178.1,198.8,179.1,198.2,180z"/>
<path class="st15" d="M145.1,186.9c1-0.4,2.1-0.7,3.2-0.8c12.8-0.1,25.6-0.1,38.5,0c1.1,0.1,2.2,0.4,3.2,0.9
	C175,186.9,160.1,186.9,145.1,186.9z"/>
<path class="st14" d="M43.1,134.6l8.9,1.6C47.2,137.8,45.2,137.5,43.1,134.6z"/>
<path class="st14" d="M59,54.3c0,0.2,0,0.4,0,0.6l-2.2,1C57.5,55.4,58.3,54.8,59,54.3z"/>
<path class="st14" d="M39.2,45c-0.3,0.8-0.7,1.6-1,2.4C38.5,46.6,38.8,45.8,39.2,45z"/>
<path class="st7" d="M43.1,41l-2,1.2L43.1,41z"/>
<path class="st14" d="M54.8,58.9l1.2-2.1L54.8,58.9z"/>
<path class="st7" d="M44.2,40.1L43,41.1L44.2,40.1z"/>
<path class="st15" d="M197.1,130l-0.2-0.9C197,129.4,197.1,129.7,197.1,130z"/>
<path class="st14" d="M40,44c-0.3,0.4-0.6,0.7-0.9,1.1c0-0.4,0-0.7-0.1-1.1C39.3,44,39.6,44,40,44z"/>
<path class="st7" d="M40,44c-0.3,0-0.6,0-0.9,0l1.3-0.8C40.4,43.5,40.3,43.9,40,44z"/>
<path class="st7" d="M41.3,42.1l-1.1,1.1L41.3,42.1z"/>
<path class="st1" d="M703.6,122c0.1,7,0.2,14,0.3,21c-0.9-0.8-2.4-1.3-2.8-2.3c-2.2-5.8-0.8-11.7,0.1-17.5
	C701.3,122.7,702.8,122.4,703.6,122z"/>
<path class="st5" d="M710.8,151.6c6,3.8,12.4,4.2,19.1,2.3c0,0.4,0,0.7,0,1.1l0,0c-1.8,3.6-5,1.2-7.5,1.6c-3.8,0.6-7.7-0.3-10.8-2.4
	C711.1,153.8,711.1,152.5,710.8,151.6z"/>
<path class="st2" d="M743.1,132c0.2-6.7-0.8-13.1-4.3-18.9c1,0.5,1.8,1.1,2.6,1.8c3.2,4.6,3.2,10,3.5,15.3
	C744.9,130.7,743.8,131.4,743.1,132z"/>
<path class="st2" d="M725,104.9c-4.1,0.9-8.2,1.7-12.3,2.6c-1.5-4,2.9-2.4,4.2-3.8c1.1-1.3,4.8-0.4,7.3-0.3
	C724.5,103.3,724.7,104.3,725,104.9z"/>
<path class="st2" d="M734,108.2c-2.3-1-4.7-2.1-7-3.1C730.9,104.1,732.7,104.9,734,108.2z"/>
<path class="st2" d="M740.8,142.9c0.7-2.3,1.4-4.7,2.1-7c0.6,0.2,1.2,0.4,2,0.6c-1,2.3-1.9,4.4-2.8,6.5l0,0L740.8,142.9z"/>
<path class="st5" d="M706,147c1.5,1.4,2.9,2.8,4.4,4.2C706.3,152.5,706.3,149.6,706,147z"/>
<path class="st2" d="M736.9,149c1-1.4,2.1-2.8,3.1-4.1C740.1,147.1,740.4,149.5,736.9,149z"/>
<path class="st5" d="M705.3,116c-0.4,1-0.8,2-1.2,3c0-1,0-2-0.1-3l0,0L705.3,116z"/>
<path class="st2" d="M731.9,153c1-0.7,2-1.4,3-2.1C735.1,153.2,733.5,153,731.9,153z"/>
<path class="st2" d="M708.3,111.1l-1.7,2.6C705.6,111.8,706.4,111.1,708.3,111.1z"/>
<path class="st2" d="M712.4,107.7c-0.8,0.5-1.6,1-2.3,1.5C710.1,107.5,710.7,106.7,712.4,107.7z"/>
<path class="st5" d="M705.7,113.4l0,0.3l-0.8-0.1L705.7,113.4z"/>
<path class="st2" d="M742,143l0.4,0.5c-0.1,0-0.2,0-0.3-0.1C742.1,143.3,742.1,143.1,742,143L742,143z"/>
<path class="st5" d="M704,116c-0.1-0.2-0.3-0.3-0.4-0.5c0.1,0,0.2,0,0.3,0.1C703.9,115.7,704,115.9,704,116L704,116z"/>
<path class="st5" d="M730,155l0.5,0.5c-0.1,0-0.2,0-0.3-0.1C730.1,155.3,730.1,155.1,730,155L730,155z"/>
<path class="st5" d="M418,119c-2.6,9.9-2,19.4,4.2,27.9c-1-0.3-2.6-0.4-2.9-1c-2.8-5.9-6.5-11.8-5.1-18.7
	C414.7,124.4,413.6,120.3,418,119z"/>
<path class="st5" d="M427,150.9c8.5,4.1,16.8,3.9,24.9-1.1c0.1,3.9-3.4,4.2-5.7,5c-5.5,2-11.5,1.7-16.7-0.7
	C428.5,153.6,427.9,152,427,150.9z"/>
<path class="st8" d="M458,143c1.8-4.9,3.7-9.8,3-15.2c-0.3-2.3-0.6-4.5-0.9-6.8c3.1,1.3,2.8,4.4,2.7,6.6c-0.4,4.4-1.1,8.7-2.2,12.9
	C460.4,141.5,458.9,142.2,458,143z"/>
<path class="st8" d="M447,105.9c-5.3,0-10.7,0-16,0c0.3-0.7,0.6-2.1,0.9-2.1c5-0.5,10.1-2,14.8,1.2C447,105.1,446.9,105.6,447,105.9
	z"/>
<path class="st5" d="M421.2,113.1l-2.1,3.2C419,114.7,418.8,113,421.2,113.1z"/>
<path class="st8" d="M458,115.1c-0.7-1-1.4-2-2.1-3C458.2,111.9,458,113.5,458,115.1z"/>
<path class="st8" d="M452.9,109.2c-1.1-0.7-2.1-1.4-3.2-2.1C451.3,107,453.1,106.7,452.9,109.2z"/>
<path class="st8" d="M458.9,117c-0.3-0.7-0.7-1.3-1-2C459.2,115.2,460.8,115.2,458.9,117z"/>
<path class="st5" d="M845.9,118c-3,8.9-2.2,18.7,2.2,27c-0.7-0.3-1.7-0.5-2-1.1c-4.2-7.9-6-16-2-24.6
	C844.4,118.8,845.3,118.5,845.9,118z"/>
<path class="st8" d="M881.7,147.9c5.7-7.8,7.2-16.5,5.4-25.9c0.7,0.6,2.1,1.1,2.1,1.7c0.1,4.1,0.3,8.3-0.4,12.4
	c-0.7,3.2-1.9,6.3-3.6,9.1C884.7,146.4,883,147,881.7,147.9z"/>
<path class="st5" d="M854.1,150.9c8,4.1,15.9,4,23.9,0c-0.6,2.9-2.9,4.1-5.4,4.3c-6,0.5-12,1-17.5-2.2
	C854.6,152.6,854.4,151.6,854.1,150.9z"/>
<path class="st8" d="M876.9,107.2c-7-3-14.9-3.1-21.9-0.1c0.3-0.8,0.3-1.9,0.8-2.2c4.5-2.8,16.6-2.3,20.8,0.9
	C877,105.9,876.9,106.7,876.9,107.2z"/>
<path class="st5" d="M848.1,144.9l6.1,6C849.7,150.3,848.8,149.4,848.1,144.9z"/>
<path class="st5" d="M847.9,114c-0.6,0.7-1.1,1.4-1.7,2.1c-0.3-0.5-0.6-0.9-0.8-1.4L847.9,114z"/>
<path class="st8" d="M884.9,115.3l-2.1-3.2C885.3,112,885,113.7,884.9,115.3z"/>
<path class="st8" d="M886.9,120.1c-0.3-0.7-0.5-1.4-0.8-2C887.5,118.2,888.7,118.5,886.9,120.1z"/>
<path class="st8" d="M878,107.9c-0.4-0.3-0.8-0.6-1.1-0.8L878,107.9z"/>
<path class="st8" d="M637.9,137.1c-8.5-2.4-17.1-5.1-25.9-1c1.7-4.2,5.8-3.8,8.9-3.8c4.3,0.1,8.5,0.8,12.6,1.9
	C635.2,134.5,637.9,134.1,637.9,137.1z"/>
<path class="st8" d="M611.1,154.9c5.3,2.5,10.6,2,15.9,0.3c-0.1,3.7-3.9,3.5-5.4,3.5c-3.4,0-6.9-1.5-10.3-2.4
	C611.1,156.2,611.2,155.3,611.1,154.9z"/>
<path class="st8" d="M607.9,141c-1.3,3.5-1.3,7.5,0.2,11C604,149.1,603.9,144.3,607.9,141z"/>
<path class="st9" d="M610,122c6.3,0,12.7,0,19,0c-1.4,0.3-2.7,1-4.1,0.9C620,122.8,615,122.3,610,122z"/>
<path class="st8" d="M637.2,146c0.2-3,0.5-5.9,0.7-8.9c0.7,0.3,1.8,0.6,1.9,1C640.2,141.1,640.3,144.1,637.2,146z"/>
<path class="st8" d="M629.8,153.9c1-0.7,2.1-1.4,3.1-2.2C633.1,154.2,631.4,154,629.8,153.9z"/>
<path class="st9" d="M635,123c1,0,2,0,3,0C637,123,636,123,635,123z"/>
<path class="st1" d="M566,169.7h-19.5V54.4H566V169.7z"/>
<path class="st1" d="M521.7,54.3v115.5h-19.4V54.3H521.7z"/>
<path class="st17" d="M137.1,133.1c0.4,1,0.7,2.1,0.9,3.1c0.1,8.7,0.1,17.5,0,26.2c-0.2,1.2-0.5,2.4-1,3.6
	C137,155,137.1,144,137.1,133.1z"/>
<path class="st17" d="M167,124.1c-1.3,0-2.6,0-3.9,0C164.4,124.1,165.7,124.1,167,124.1z"/>
<path class="st17" d="M173,124.1c-1,0-1.9,0-2.9,0C171,124.1,172,124.1,173,124.1z"/>
<path class="st17" d="M139,128.9c-0.4,0.7-0.8,1.4-1.2,2.1C138.1,130.3,138.5,129.6,139,128.9z"/>
<path class="st17" d="M139.2,128.1l-0.3,0.9C138.8,128.6,138.9,128.3,139.2,128.1z"/>
<path class="st18" d="M162.9,149.1c0-3.5,0-6.9,0-10.7h8.1v12.5h12.9v9.2c-3.9,0.3-8.1,0.7-12.7,1.1v11.1c-2.7,0.2-5,0.3-8.2,0.5
	V161c-0.7-0.5-1.5-0.8-2.3-1c-3.5-0.1-7.1-0.1-10.6-0.1c0-2.9,0-5.8,0-8.7l1.9-0.2c3,0,6.1,0,9.1,0
	C161.7,150.3,162.3,149.7,162.9,149.1z"/>
<path class="st17" d="M150,159.8c3.5,0,7.1,0,10.6,0.1c0.8,0.2,1.6,0.6,2.3,1c-3.3,0-6.6,0.1-9.9,0C152,160.7,151,160.4,150,159.8z"
	/>
<path class="st17" d="M162.9,149.1c-0.6,0.6-1.2,1.2-1.8,1.9C161.7,150.3,162.3,149.7,162.9,149.1z"/>
<path class="st17" d="M152,150.9c-0.6,0.1-1.3,0.1-1.9,0.2C150.7,151,151.3,151,152,150.9z"/>
</svg>
